<svg class="animated" id="freepik_stories-grid-design" xmlns="http://www.w3.org/2000/svg" viewBox="0 0 500 500" version="1.1" xmlns:xlink="http://www.w3.org/1999/xlink" xmlns:svgjs="http://svgjs.com/svgjs"><style>svg#freepik_stories-grid-design:not(.animated) .animable {opacity: 0;}svg#freepik_stories-grid-design.animated #freepik--background-complete--inject-31 {animation: 1s 1 forwards cubic-bezier(.36,-0.01,.5,1.38) slideRight;animation-delay: 0s;}svg#freepik_stories-grid-design.animated #freepik--Table--inject-31 {animation: 1s 1 forwards cubic-bezier(.36,-0.01,.5,1.38) slideRight;animation-delay: 0s;}svg#freepik_stories-grid-design.animated #freepik--Grid--inject-31 {animation: 1s 1 forwards cubic-bezier(.36,-0.01,.5,1.38) zoomOut;animation-delay: 0s;}svg#freepik_stories-grid-design.animated #freepik--tools-2--inject-31 {animation: 1s 1 forwards cubic-bezier(.36,-0.01,.5,1.38) slideUp;animation-delay: 0s;}svg#freepik_stories-grid-design.animated #freepik--tools-1--inject-31 {animation: 1s 1 forwards cubic-bezier(.36,-0.01,.5,1.38) slideLeft;animation-delay: 0s;}svg#freepik_stories-grid-design.animated #freepik--Character--inject-31 {animation: 1s 1 forwards cubic-bezier(.36,-0.01,.5,1.38) lightSpeedRight;animation-delay: 0s;}            @keyframes slideRight {                0% {                    opacity: 0;                    transform: translateX(30px);                }                100% {                    opacity: 1;                    transform: translateX(0);                }            }                    @keyframes zoomOut {                0% {                    opacity: 0;                    transform: scale(1.5);                }                100% {                    opacity: 1;                    transform: scale(1);                }            }                    @keyframes slideUp {                0% {                    opacity: 0;                    transform: translateY(30px);                }                100% {                    opacity: 1;                    transform: inherit;                }            }                    @keyframes slideLeft {                0% {                    opacity: 0;                    transform: translateX(-30px);                }                100% {                    opacity: 1;                    transform: translateX(0);                }            }                    @keyframes lightSpeedRight {              from {                transform: translate3d(50%, 0, 0) skewX(-20deg);                opacity: 0;              }              60% {                transform: skewX(10deg);                opacity: 1;              }              80% {                transform: skewX(-2deg);              }              to {                opacity: 1;                transform: translate3d(0, 0, 0);              }            }        </style><g id="freepik--background-complete--inject-31" class="animable" style="transform-origin: 203.955px 235.955px;"><path d="M114.12,412.25a68.62,68.62,0,1,1,68.61-68.61A68.69,68.69,0,0,1,114.12,412.25Zm0-136.73a68.12,68.12,0,1,0,68.11,68.12A68.2,68.2,0,0,0,114.12,275.52Z" style="fill: rgb(235, 235, 235); transform-origin: 114.11px 343.63px;" id="elq7fy3pgbdhc" class="animable"></path><path d="M114.12,400.86a57.22,57.22,0,1,1,57.22-57.22A57.29,57.29,0,0,1,114.12,400.86Zm0-113.94a56.72,56.72,0,1,0,56.72,56.72A56.78,56.78,0,0,0,114.12,286.92Z" style="fill: rgb(235, 235, 235); transform-origin: 114.12px 343.64px;" id="elqhyr7ouyi2a" class="animable"></path><path d="M114.12,389.46A45.83,45.83,0,1,1,160,343.64,45.88,45.88,0,0,1,114.12,389.46Zm0-91.15a45.33,45.33,0,1,0,45.33,45.33A45.38,45.38,0,0,0,114.12,298.31Z" style="fill: rgb(235, 235, 235); transform-origin: 114.17px 343.63px;" id="el98i1hczfklf" class="animable"></path><path d="M114.12,378.07a34.44,34.44,0,1,1,34.43-34.43A34.47,34.47,0,0,1,114.12,378.07Zm0-68.37a33.94,33.94,0,1,0,33.93,33.94A34,34,0,0,0,114.12,309.7Z" style="fill: rgb(235, 235, 235); transform-origin: 114.11px 343.63px;" id="eldyssoi9w0y5" class="animable"></path><path d="M114.12,366.67a23,23,0,1,1,23-23A23.06,23.06,0,0,1,114.12,366.67Zm0-45.57a22.54,22.54,0,1,0,22.54,22.54A22.56,22.56,0,0,0,114.12,321.1Z" style="fill: rgb(235, 235, 235); transform-origin: 114.12px 343.67px;" id="el0aah2gjbx3rq" class="animable"></path><path d="M114.12,355.28a11.65,11.65,0,1,1,11.64-11.64A11.66,11.66,0,0,1,114.12,355.28Zm0-22.79a11.15,11.15,0,1,0,11.14,11.15A11.16,11.16,0,0,0,114.12,332.49Z" style="fill: rgb(235, 235, 235); transform-origin: 114.11px 343.63px;" id="eltjjx5zfx0i" class="animable"></path><rect x="113.87" y="343.64" width="0.5" height="68.37" style="fill: rgb(235, 235, 235); transform-origin: 114.12px 377.825px;" id="elhniyawahor4" class="animable"></rect><g id="eldtcykdecjea"><rect x="146.38" y="320.02" width="0.5" height="68.37" style="fill: rgb(235, 235, 235); transform-origin: 146.63px 354.205px; transform: rotate(-72deg);" class="animable"></rect></g><polygon points="114.32 343.78 113.92 343.49 154.1 288.18 154.5 288.47 114.32 343.78" style="fill: rgb(235, 235, 235); transform-origin: 134.21px 315.98px;" id="elu9jdd5kgy0r" class="animable"></polygon><polygon points="113.92 343.78 73.73 288.47 74.14 288.18 114.32 343.49 113.92 343.78" style="fill: rgb(235, 235, 235); transform-origin: 94.025px 315.98px;" id="eljhxkon8wp7o" class="animable"></polygon><g id="el9560di0tlog"><rect x="47.43" y="353.95" width="68.36" height="0.5" style="fill: rgb(235, 235, 235); transform-origin: 81.61px 354.2px; transform: rotate(-18.01deg);" class="animable"></rect></g><polygon points="358.24 429.35 356.47 429.35 356.47 428.17 357.06 428.17 357.06 427.58 358.24 427.58 358.24 429.35" style="fill: rgb(235, 235, 235); transform-origin: 357.355px 428.465px;" id="ellafy04z3g3b" class="animable"></polygon><path d="M354.08,429.35h-2.4v-1.18h2.4Zm-4.79,0h-2.4v-1.18h2.4Zm-4.79,0h-2.39v-1.18h2.39Zm-4.79,0h-2.39v-1.18h2.39Zm-4.78,0h-2.4v-1.18h2.4Zm-4.79,0h-2.4v-1.18h2.4Zm-4.79,0H323v-1.18h2.39Zm-4.79,0h-2.39v-1.18h2.39Zm-4.78,0h-2.4v-1.18h2.4Zm-4.79,0h-2.4v-1.18H311Zm-4.79,0h-2.39v-1.18h2.39Zm-4.79,0H299v-1.18h2.39Zm-4.79,0h-2.39v-1.18h2.39Z" style="fill: rgb(235, 235, 235); transform-origin: 324.155px 428.76px;" id="el8ptx4bf0xm9" class="animable"></path><polygon points="291.84 429.35 290.06 429.35 290.06 427.58 291.25 427.58 291.25 428.17 291.84 428.17 291.84 429.35" style="fill: rgb(235, 235, 235); transform-origin: 290.95px 428.465px;" id="elscw7qy2e8cs" class="animable"></polygon><path d="M291.25,425.18h-1.19v-2.39h1.19Zm0-4.78h-1.19V418h1.19Zm0-4.79h-1.19v-2.4h1.19Zm0-4.79h-1.19v-2.39h1.19Zm0-4.79h-1.19v-2.39h1.19Zm0-4.78h-1.19v-2.4h1.19Zm0-4.79h-1.19v-2.4h1.19Zm0-4.79h-1.19v-2.39h1.19Zm0-4.79h-1.19v-2.39h1.19Zm0-4.79h-1.19V379.7h1.19Zm0-4.78h-1.19v-2.4h1.19Zm0-4.79h-1.19v-2.39h1.19Zm0-4.79h-1.19v-2.39h1.19Z" style="fill: rgb(235, 235, 235); transform-origin: 290.655px 395.26px;" id="el8pp5weqf74" class="animable"></path><polygon points="291.25 362.94 290.06 362.94 290.06 361.17 291.84 361.17 291.84 362.35 291.25 362.35 291.25 362.94" style="fill: rgb(235, 235, 235); transform-origin: 290.95px 362.055px;" id="elco4no8qv8xf" class="animable"></polygon><path d="M354.08,362.35h-2.4v-1.18h2.4Zm-4.79,0h-2.4v-1.18h2.4Zm-4.79,0h-2.39v-1.18h2.39Zm-4.79,0h-2.39v-1.18h2.39Zm-4.78,0h-2.4v-1.18h2.4Zm-4.79,0h-2.4v-1.18h2.4Zm-4.79,0H323v-1.18h2.39Zm-4.79,0h-2.39v-1.18h2.39Zm-4.78,0h-2.4v-1.18h2.4Zm-4.79,0h-2.4v-1.18H311Zm-4.79,0h-2.39v-1.18h2.39Zm-4.79,0H299v-1.18h2.39Zm-4.79,0h-2.39v-1.18h2.39Z" style="fill: rgb(235, 235, 235); transform-origin: 324.155px 361.76px;" id="el5nyk7anypu6" class="animable"></path><polygon points="358.24 362.94 357.06 362.94 357.06 362.35 356.47 362.35 356.47 361.17 358.24 361.17 358.24 362.94" style="fill: rgb(235, 235, 235); transform-origin: 357.355px 362.055px;" id="elxu4djuk6s6" class="animable"></polygon><path d="M358.24,425.18h-1.18v-2.39h1.18Zm0-4.78h-1.18V418h1.18Zm0-4.79h-1.18v-2.4h1.18Zm0-4.79h-1.18v-2.39h1.18Zm0-4.79h-1.18v-2.39h1.18Zm0-4.78h-1.18v-2.4h1.18Zm0-4.79h-1.18v-2.4h1.18Zm0-4.79h-1.18v-2.39h1.18Zm0-4.79h-1.18v-2.39h1.18Zm0-4.78h-1.18v-2.4h1.18Zm0-4.79h-1.18v-2.4h1.18Zm0-4.79h-1.18v-2.39h1.18Zm0-4.79h-1.18v-2.39h1.18Z" style="fill: rgb(235, 235, 235); transform-origin: 357.65px 395.26px;" id="elnhz5hk07qi" class="animable"></path><rect x="286.48" y="424.59" width="8.35" height="8.35" style="fill: rgb(255, 255, 255); transform-origin: 290.655px 428.765px;" id="el6x0k2mxs9uu" class="animable"></rect><path d="M295.42,433.53h-9.53V424h9.53Zm-8.35-1.19h7.17v-7.16h-7.17Z" style="fill: rgb(235, 235, 235); transform-origin: 290.655px 428.765px;" id="elimd8b543pm" class="animable"></path><rect x="286.48" y="391.09" width="8.35" height="8.35" style="fill: rgb(255, 255, 255); transform-origin: 290.655px 395.265px;" id="elynt006tly" class="animable"></rect><path d="M295.42,400h-9.53v-9.54h9.53Zm-8.35-1.19h7.17v-7.16h-7.17Z" style="fill: rgb(235, 235, 235); transform-origin: 290.655px 395.23px;" id="el6rlq4tcos7m" class="animable"></path><rect x="286.48" y="357.59" width="8.35" height="8.35" style="fill: rgb(255, 255, 255); transform-origin: 290.655px 361.765px;" id="ele1us5h0n28" class="animable"></rect><path d="M295.42,366.53h-9.53V357h9.53Zm-8.35-1.19h7.17v-7.16h-7.17Z" style="fill: rgb(235, 235, 235); transform-origin: 290.655px 361.765px;" id="elc5p2zxjcgu5" class="animable"></path><rect x="353.48" y="424.59" width="8.35" height="8.35" style="fill: rgb(255, 255, 255); transform-origin: 357.655px 428.765px;" id="elgubsc5v1sst" class="animable"></rect><path d="M362.42,433.53h-9.53V424h9.53Zm-8.35-1.19h7.17v-7.16h-7.17Z" style="fill: rgb(235, 235, 235); transform-origin: 357.655px 428.765px;" id="elioltwanwb89" class="animable"></path><rect x="353.48" y="391.09" width="8.35" height="8.35" style="fill: rgb(255, 255, 255); transform-origin: 357.655px 395.265px;" id="el3pcnwmn0uxp" class="animable"></rect><path d="M362.42,400h-9.53v-9.54h9.53Zm-8.35-1.19h7.17v-7.16h-7.17Z" style="fill: rgb(235, 235, 235); transform-origin: 357.655px 395.23px;" id="elclixhjcv97q" class="animable"></path><rect x="353.48" y="357.59" width="8.35" height="8.35" style="fill: rgb(255, 255, 255); transform-origin: 357.655px 361.765px;" id="elk3jystmw4r" class="animable"></rect><path d="M362.42,366.53h-9.53V357h9.53Zm-8.35-1.19h7.17v-7.16h-7.17Z" style="fill: rgb(235, 235, 235); transform-origin: 357.655px 361.765px;" id="elg8cmafs226h" class="animable"></path><rect x="319.98" y="357.59" width="8.35" height="8.35" style="fill: rgb(255, 255, 255); transform-origin: 324.155px 361.765px;" id="elck85ym6pysa" class="animable"></rect><path d="M328.92,366.53h-9.53V357h9.53Zm-8.35-1.19h7.17v-7.16h-7.17Z" style="fill: rgb(235, 235, 235); transform-origin: 324.155px 361.765px;" id="ell4s808rxg4" class="animable"></path><rect x="319.98" y="424.59" width="8.35" height="8.35" style="fill: rgb(255, 255, 255); transform-origin: 324.155px 428.765px;" id="elrjbk1vh2mfs" class="animable"></rect><path d="M328.92,433.53h-9.53V424h9.53Zm-8.35-1.19h7.17v-7.16h-7.17Z" style="fill: rgb(235, 235, 235); transform-origin: 324.155px 428.765px;" id="elbkj1npczntn" class="animable"></path><path d="M203.1,69.18s-.26,14.49-9.54,30.93H180.49C171.21,83.67,171,69.18,171,69.18c13.43-7.51,13.78-24.32,13.78-24.32h1.35V71.47a4.1,4.1,0,1,0,1.89,0V44.86h1.35S189.67,61.67,203.1,69.18Z" style="fill: rgb(235, 235, 235); transform-origin: 187.05px 72.485px;" id="elt5cgbzce61q" class="animable"></path><rect x="177.37" y="98.52" width="19.32" height="8.13" style="fill: rgb(199, 199, 199); transform-origin: 187.03px 102.585px;" id="elux83orqzclp" class="animable"></rect><path d="M231.87,88.36h-1.3a43.55,43.55,0,1,0-87.09,0h-1.3a44.85,44.85,0,1,1,89.69,0Z" style="fill: rgb(235, 235, 235); transform-origin: 187.025px 65.6002px;" id="elzpte3hc7ybg" class="animable"></path><rect x="141.82" y="42.97" width="89.4" height="1.3" style="fill: rgb(235, 235, 235); transform-origin: 186.52px 43.62px;" id="eljzmmfktr5tg" class="animable"></rect><rect x="138.23" y="83.76" width="9.19" height="9.19" style="fill: rgb(255, 255, 255); transform-origin: 142.825px 88.355px;" id="elj4hgyw6ceta" class="animable"></rect><path d="M148.08,93.61h-10.5V83.11h10.5Zm-9.2-1.31h7.9V84.41h-7.9Z" style="fill: rgb(235, 235, 235); transform-origin: 142.83px 88.36px;" id="elav1puxsakgo" class="animable"></path><rect x="138.23" y="39.03" width="9.19" height="9.19" style="fill: rgb(255, 255, 255); transform-origin: 142.825px 43.625px;" id="elslxmhgpmy6l" class="animable"></rect><path d="M148.08,48.87h-10.5V38.38h10.5Zm-9.2-1.3h7.9V39.68h-7.9Z" style="fill: rgb(235, 235, 235); transform-origin: 142.83px 43.625px;" id="elf6htev2w1da" class="animable"></path><rect x="226.62" y="83.76" width="9.19" height="9.19" style="fill: rgb(255, 255, 255); transform-origin: 231.215px 88.355px;" id="elnknkb37moeg" class="animable"></rect><path d="M236.47,93.61H226V83.11h10.5Zm-9.2-1.31h7.9V84.41h-7.9Z" style="fill: rgb(235, 235, 235); transform-origin: 231.25px 88.36px;" id="eln7v639zxnei" class="animable"></path><rect x="226.62" y="39.03" width="9.19" height="9.19" style="fill: rgb(255, 255, 255); transform-origin: 231.215px 43.625px;" id="el3lzam7x453t" class="animable"></rect><path d="M236.47,48.87H226V38.38h10.5Zm-9.2-1.3h7.9V39.68h-7.9Z" style="fill: rgb(235, 235, 235); transform-origin: 231.25px 43.625px;" id="elvso12eqy74i" class="animable"></path></g><g id="freepik--Table--inject-31" class="animable" style="transform-origin: 250px 461.822px;"><path d="M45.75,461.82c130.86-.61,277.64-.61,408.5,0-130.86.62-277.64.61-408.5,0Z" style="fill: rgb(38, 50, 56); transform-origin: 250px 461.822px;" id="elf20me7zww7o" class="animable"></path></g><g id="freepik--Grid--inject-31" class="animable" style="transform-origin: 353.905px 196.725px;"><rect x="268.89" y="100.97" width="0.33" height="191.23" style="fill: rgb(235, 235, 235); transform-origin: 269.055px 196.585px;" id="elm82jpcjkack" class="animable"></rect><rect x="281.01" y="100.97" width="0.33" height="191.23" style="fill: rgb(235, 235, 235); transform-origin: 281.175px 196.585px;" id="elhp8udxoi7qo" class="animable"></rect><rect x="293.13" y="100.97" width="0.33" height="191.23" style="fill: rgb(235, 235, 235); transform-origin: 293.295px 196.585px;" id="el4crurauavuc" class="animable"></rect><rect x="304.77" y="100.97" width="1.3" height="191.23" style="fill: rgb(235, 235, 235); transform-origin: 305.42px 196.585px;" id="ell4x9nm9l5dg" class="animable"></rect><rect x="317.38" y="100.97" width="0.33" height="191.23" style="fill: rgb(235, 235, 235); transform-origin: 317.545px 196.585px;" id="el1hsyck5mnxh" class="animable"></rect><rect x="329.5" y="100.97" width="0.33" height="191.23" style="fill: rgb(235, 235, 235); transform-origin: 329.665px 196.585px;" id="el3m352135k91" class="animable"></rect><rect x="341.62" y="100.97" width="0.33" height="191.23" style="fill: rgb(235, 235, 235); transform-origin: 341.785px 196.585px;" id="elb201n54d1aj" class="animable"></rect><rect x="353.25" y="100.97" width="1.3" height="191.23" style="fill: rgb(199, 199, 199); transform-origin: 353.9px 196.585px;" id="elyaauxxp5pv" class="animable"></rect><rect x="365.86" y="100.97" width="0.33" height="191.23" style="fill: rgb(235, 235, 235); transform-origin: 366.025px 196.585px;" id="elpxxcr18rwtn" class="animable"></rect><rect x="377.98" y="100.97" width="0.33" height="191.23" style="fill: rgb(235, 235, 235); transform-origin: 378.145px 196.585px;" id="el92h2mj7f28b" class="animable"></rect><rect x="390.11" y="100.97" width="0.33" height="191.23" style="fill: rgb(235, 235, 235); transform-origin: 390.275px 196.585px;" id="el8qoixlo4b78" class="animable"></rect><rect x="401.74" y="100.97" width="1.3" height="191.23" style="fill: rgb(235, 235, 235); transform-origin: 402.39px 196.585px;" id="el8sbyubjehy6" class="animable"></rect><rect x="414.35" y="100.97" width="0.33" height="191.23" style="fill: rgb(235, 235, 235); transform-origin: 414.515px 196.585px;" id="el7zan6xr6av5" class="animable"></rect><rect x="426.47" y="100.97" width="0.33" height="191.23" style="fill: rgb(235, 235, 235); transform-origin: 426.635px 196.585px;" id="elp9w1ycwnnp" class="animable"></rect><rect x="438.59" y="100.97" width="0.33" height="191.23" style="fill: rgb(235, 235, 235); transform-origin: 438.755px 196.585px;" id="el93879zez5s6" class="animable"></rect><rect x="258.29" y="111.58" width="191.23" height="0.33" style="fill: rgb(235, 235, 235); transform-origin: 353.905px 111.745px;" id="el0nwoxv38k1v" class="animable"></rect><rect x="258.29" y="123.7" width="191.23" height="0.33" style="fill: rgb(235, 235, 235); transform-origin: 353.905px 123.865px;" id="eljrw95l4apho" class="animable"></rect><rect x="258.29" y="135.82" width="191.23" height="0.33" style="fill: rgb(235, 235, 235); transform-origin: 353.905px 135.985px;" id="elkwsde6qoe9s" class="animable"></rect><rect x="258.29" y="147.45" width="191.23" height="1.3" style="fill: rgb(235, 235, 235); transform-origin: 353.905px 148.1px;" id="elr8an3g9axtc" class="animable"></rect><rect x="258.29" y="160.06" width="191.23" height="0.33" style="fill: rgb(235, 235, 235); transform-origin: 353.905px 160.225px;" id="eler1sar4nm5j" class="animable"></rect><rect x="258.29" y="172.18" width="191.23" height="0.33" style="fill: rgb(235, 235, 235); transform-origin: 353.905px 172.345px;" id="elobrnqmw8gp" class="animable"></rect><rect x="258.29" y="184.31" width="191.23" height="0.33" style="fill: rgb(235, 235, 235); transform-origin: 353.905px 184.475px;" id="elh5784m5it4a" class="animable"></rect><rect x="258.29" y="195.94" width="191.23" height="1.3" style="fill: rgb(199, 199, 199); transform-origin: 353.905px 196.59px;" id="el2u8ge23p0m3" class="animable"></rect><rect x="258.29" y="208.55" width="191.23" height="0.33" style="fill: rgb(235, 235, 235); transform-origin: 353.905px 208.715px;" id="el8ckg7sjp6m5" class="animable"></rect><rect x="258.29" y="220.67" width="191.23" height="0.33" style="fill: rgb(235, 235, 235); transform-origin: 353.905px 220.835px;" id="eld3j8y0m6dh" class="animable"></rect><rect x="258.29" y="232.79" width="191.23" height="0.33" style="fill: rgb(235, 235, 235); transform-origin: 353.905px 232.955px;" id="elmbzlt317x7q" class="animable"></rect><rect x="258.29" y="244.43" width="191.23" height="1.3" style="fill: rgb(235, 235, 235); transform-origin: 353.905px 245.08px;" id="ela8jxu1fs0d7" class="animable"></rect><rect x="258.29" y="257.04" width="191.23" height="0.33" style="fill: rgb(235, 235, 235); transform-origin: 353.905px 257.205px;" id="el3bbjd5itl6b" class="animable"></rect><rect x="258.29" y="269.16" width="191.23" height="0.33" style="fill: rgb(235, 235, 235); transform-origin: 353.905px 269.325px;" id="elaktfv932xhc" class="animable"></rect><rect x="258.29" y="281.28" width="191.23" height="0.33" style="fill: rgb(235, 235, 235); transform-origin: 353.905px 281.445px;" id="el6uiv8hija29" class="animable"></rect><path d="M449.42,292.21c-.05,0-191.06.06-191.12.08s0-191.09-.08-191.12V101h.16c.05,0,191.07.1,191.13.08s-.14,191.07-.09,191.12Zm0,0s-.19-191.38,0-191l-191,.08.17-.16s0,191.39-.17,191l191,.08Z" style="fill: rgb(38, 50, 56); transform-origin: 353.871px 196.645px;" id="elkpz3lercvb" class="animable"></path><path d="M449.42,292.21c-47.62.12-143.39.42-191,.39l-.13,0a12.08,12.08,0,0,1-.34-3.32c-.1-51.62-.13-112.54-.2-164.24,0-3.82,0-14.19,0-17.92a38.63,38.63,0,0,1,.17-5.58l.13-.79-.17,0a.21.21,0,0,0-.15.19l.5-.5h.16l-.28.08c1.07-.08,2.35-.1,3.27-.09l20.9,0c43.18-.06,123.18.27,167.09.27l.25,0a15.2,15.2,0,0,1,.24,2.55v3.74c0,51.54-.25,132.9-.43,185.15Zm0,0c-.41-49.9,0-130-.22-179.18,0-2.57,0-7.77,0-10.34,0-.39.13-.81.2-1.29h.25l-47.93,0c-34.49.06-85.09,0-119.45,0-6.64,0-17,.14-23.6-.06l-.29.08h-.16l.5-.49a.9.9,0,0,1-.15.51l0-.74a46.32,46.32,0,0,1,.19,6.36c0,3.69,0,14.07,0,17.92,0,51.72-.1,112.6-.09,164.24v.75a8.47,8.47,0,0,1-.32,1.91l-.13,0c47.65-.08,143.6.13,191.24.23Z" style="fill: rgb(38, 50, 56); transform-origin: 353.788px 196.512px;" id="el7fgtvsd6l2t" class="animable"></path><path d="M449.42,292.21c-.43-52.52-.27-133.23-.37-185,0-1.45,0-4.3,0-5.78v-.15c.28,0-.63,0,.63-.17l-.06-.1c-28.34.19-67.44,0-95.37.44-28.28.23-68.45.4-97.11.38L258,101l.16-.17v.71c1.71-.66.47-.17.85-.3v.69c0,13.13,0,33.68-.05,47,0,43.52-.08,98.41-.24,141.73v1.46c-.28,0,.63,0-.64.17,61.91.24,129.37-.57,191.34-.06Zm0,0c-61.84.53-130.37-.58-191.36-.15v-1.43c.09-43.24,0-98.26,0-141.72,0-13.36,0-33.8,0-47v-.7c.38-.17-.86.3.85-.39l1.18-.48-1.18,1.18-.16.16-.36-.85c28.1.18,67.46-.11,95.14.3s69.39.41,96.22.31c-.05,1.53,0,4.21,0,5.78-.09,51.48-.14,132.8-.28,185Z" style="fill: rgb(38, 50, 56); transform-origin: 353.445px 196.348px;" id="el1m7v8b1fbyii" class="animable"></path><rect x="254.77" y="97.55" width="7.23" height="7.23" style="fill: rgb(38, 50, 56); transform-origin: 258.385px 101.165px;" id="elq59prpdkhc" class="animable"></rect><rect x="445.81" y="97.55" width="7.23" height="7.23" style="fill: rgb(38, 50, 56); transform-origin: 449.425px 101.165px;" id="elmrhnvyn4h6b" class="animable"></rect><rect x="254.77" y="288.67" width="7.23" height="7.23" style="fill: rgb(38, 50, 56); transform-origin: 258.385px 292.285px;" id="elrs4xi2dm8wq" class="animable"></rect><rect x="445.81" y="288.67" width="7.23" height="7.23" style="fill: rgb(38, 50, 56); transform-origin: 449.425px 292.285px;" id="elsos3ry5s6b" class="animable"></rect></g><g id="freepik--tools-2--inject-31" class="animable" style="transform-origin: 362.42px 332.34px;"><rect x="308.84" y="300.55" width="107.16" height="63.58" style="fill: rgb(219, 219, 219); transform-origin: 362.42px 332.34px;" id="elxvglikctyd" class="animable"></rect><polygon points="314.52 306.25 311.3 303.04 311.61 302.74 314.82 305.95 314.52 306.25" style="fill: rgb(255, 255, 255); transform-origin: 313.06px 304.495px;" id="el932cksv6ty" class="animable"></polygon><polygon points="311.61 306.25 311.3 305.95 314.52 302.74 314.82 303.04 311.61 306.25" style="fill: rgb(255, 255, 255); transform-origin: 313.06px 304.495px;" id="el8jdl0frl1es" class="animable"></polygon><g id="ela7a4pfzlkh"><rect x="410.15" y="303.95" width="0.43" height="2.7" style="fill: rgb(255, 255, 255); transform-origin: 410.365px 305.3px; transform: rotate(-44.99deg);" class="animable"></rect></g><g id="ells5hek0bmd"><rect x="409.01" y="303.48" width="2.7" height="0.43" style="fill: rgb(255, 255, 255); transform-origin: 410.36px 303.695px; transform: rotate(-45deg);" class="animable"></rect></g><g id="el6ok98hfxy6d"><rect x="412.25" y="303.95" width="0.43" height="2.7" style="fill: rgb(255, 255, 255); transform-origin: 412.465px 305.3px; transform: rotate(-44.99deg);" class="animable"></rect></g><g id="elaoa2wtsir5e"><rect x="411.11" y="303.48" width="2.7" height="0.43" style="fill: rgb(255, 255, 255); transform-origin: 412.46px 303.695px; transform: rotate(-45.02deg);" class="animable"></rect></g><rect x="327.78" y="310.67" width="0.43" height="41.78" style="fill: rgb(255, 255, 255); transform-origin: 327.995px 331.56px;" id="ellivcncqd93b" class="animable"></rect><rect x="343.19" y="310.67" width="0.43" height="41.78" style="fill: rgb(255, 255, 255); transform-origin: 343.405px 331.56px;" id="el35ywjnkteoi" class="animable"></rect><path d="M320.15,314.52a5.24,5.24,0,0,0-4.46,2.53,5.51,5.51,0,0,0,4.46,2.55,5.7,5.7,0,0,0,4.53-2.55A5.45,5.45,0,0,0,320.15,314.52Zm0,4.61a2.07,2.07,0,1,1,2.06-2.06A2.06,2.06,0,0,1,320.15,319.13Z" style="fill: rgb(255, 255, 255); transform-origin: 320.185px 317.06px;" id="eltz9lgr8y99s" class="animable"></path><path d="M321.74,317.06a1.6,1.6,0,1,1-1.6-1.6A1.6,1.6,0,0,1,321.74,317.06Z" style="fill: rgb(255, 255, 255); transform-origin: 320.14px 317.06px;" id="eliulh6f627um" class="animable"></path><path d="M320.15,329.06a5.24,5.24,0,0,0-4.46,2.53,5.51,5.51,0,0,0,4.46,2.54,5.7,5.7,0,0,0,4.53-2.54A5.45,5.45,0,0,0,320.15,329.06Zm0,4.61a2.08,2.08,0,1,1,2.06-2.07A2.07,2.07,0,0,1,320.15,333.67Z" style="fill: rgb(255, 255, 255); transform-origin: 320.185px 331.595px;" id="el7o7e7swspzp" class="animable"></path><path d="M321.74,331.59a1.6,1.6,0,1,1-1.6-1.6A1.59,1.59,0,0,1,321.74,331.59Z" style="fill: rgb(255, 255, 255); transform-origin: 320.14px 331.59px;" id="elr9y88f9dum8" class="animable"></path><path d="M320.15,342.94a5.24,5.24,0,0,0-4.46,2.53,5.51,5.51,0,0,0,4.46,2.54,5.7,5.7,0,0,0,4.53-2.54A5.45,5.45,0,0,0,320.15,342.94Zm0,4.61a2.08,2.08,0,1,1,2.06-2.07A2.06,2.06,0,0,1,320.15,347.55Z" style="fill: rgb(255, 255, 255); transform-origin: 320.185px 345.475px;" id="el978a3zbgr6m" class="animable"></path><path d="M321.74,345.48a1.6,1.6,0,1,1-1.6-1.6A1.6,1.6,0,0,1,321.74,345.48Z" style="fill: rgb(255, 255, 255); transform-origin: 320.14px 345.48px;" id="eloywusyldxbo" class="animable"></path><rect x="313.26" y="324.41" width="98.31" height="0.43" style="fill: rgb(255, 255, 255); transform-origin: 362.415px 324.625px;" id="elgb2j8mukyvu" class="animable"></rect><rect x="313.26" y="338.35" width="98.31" height="0.43" style="fill: rgb(255, 255, 255); transform-origin: 362.415px 338.565px;" id="elu8ud0czx86" class="animable"></rect><path d="M355,320.08h0a.24.24,0,0,1-.24-.24v-6.62a.25.25,0,0,1,.49,0v6.36h3.4a.26.26,0,0,1,.26.26.25.25,0,0,1-.26.24Z" style="fill: rgb(255, 255, 255); transform-origin: 356.835px 316.55px;" id="elf0bl5xwp36" class="animable"></path><path d="M364.53,315.35v4.49a.25.25,0,0,1-.49,0v-.74a2.31,2.31,0,0,1-1.87,1,2.49,2.49,0,0,1,0-5,2.33,2.33,0,0,1,1.87,1v-.73a.24.24,0,0,1,.24-.24A.24.24,0,0,1,364.53,315.35ZM364,317.6a1.87,1.87,0,1,0-1.87,2A1.94,1.94,0,0,0,364,317.6Z" style="fill: rgb(255, 255, 255); transform-origin: 362.1px 317.6px;" id="el6jfjnhhg5e4" class="animable"></path><path d="M366.54,315.34a.23.23,0,0,1,.23-.23.24.24,0,0,1,.25.23V318a1.54,1.54,0,0,0,3.07,0v-2.7a.17.17,0,0,1,0-.12s0,0,0,0h0a.18.18,0,0,1,.09-.06h.11l.12.05s.06,0,.07.08a.19.19,0,0,1,0,.1v4.35a2.35,2.35,0,0,1-2.37,2.33,2.5,2.5,0,0,1-1-.23.24.24,0,0,1-.1-.33.26.26,0,0,1,.31-.12,1.87,1.87,0,0,0,2.69-1.65v-.33a2,2,0,0,1-3.55-1.32Z" style="fill: rgb(255, 255, 255); transform-origin: 368.473px 318.57px;" id="ele6osppdidkg" class="animable"></path><path d="M372.26,317.61a2.41,2.41,0,0,1,4.81-.19h0v0a.23.23,0,0,1-.24.23h-4.08a2,2,0,0,0,1.92,1.91,1.89,1.89,0,0,0,1.61-.91.23.23,0,0,1,.32-.08.26.26,0,0,1,.08.35,2.35,2.35,0,0,1-2,1.12A2.44,2.44,0,0,1,372.26,317.61Zm.52-.4h3.76a1.9,1.9,0,0,0-3.76,0Z" style="fill: rgb(255, 255, 255); transform-origin: 374.665px 317.634px;" id="ellr5fbejagza" class="animable"></path><path d="M378.58,315.36a.24.24,0,0,1,.25-.24.24.24,0,0,1,.24.24v1.1a.75.75,0,0,1,.07-.12,2.38,2.38,0,0,1,2-1.22.24.24,0,0,1,.24.24.25.25,0,0,1-.24.25,1.77,1.77,0,0,0-1.44.81,4.25,4.25,0,0,0-.6,1.16.15.15,0,0,0,0,.08v2.18a.24.24,0,0,1-.24.24.24.24,0,0,1-.25-.24Z" style="fill: rgb(255, 255, 255); transform-origin: 379.98px 317.6px;" id="eldoonw991zq" class="animable"></path><path d="M386.85,313.7l-1,.59a.25.25,0,0,1-.13,0,.24.24,0,0,1-.21-.12.24.24,0,0,1,.09-.34L387,313a.27.27,0,0,1,.34.09.29.29,0,0,1,0,.18v6.53a.24.24,0,0,1-.25.24.24.24,0,0,1-.24-.24Z" style="fill: rgb(255, 255, 255); transform-origin: 386.414px 316.507px;" id="elfw5fmylhtsh" class="animable"></path><path d="M355,334.72h0a.25.25,0,0,1-.24-.25v-6.61a.25.25,0,1,1,.49,0v6.36h3.4a.26.26,0,0,1,.26.25.26.26,0,0,1-.26.25Z" style="fill: rgb(255, 255, 255); transform-origin: 356.833px 331.14px;" id="elr26ajhz776g" class="animable"></path><path d="M364.53,330v4.48a.25.25,0,1,1-.49,0v-.74a2.32,2.32,0,0,1-1.87,1,2.49,2.49,0,0,1,0-5,2.31,2.31,0,0,1,1.87,1V330a.25.25,0,1,1,.49,0Zm-.49,2.24a1.87,1.87,0,1,0-1.87,2A1.94,1.94,0,0,0,364,332.23Z" style="fill: rgb(255, 255, 255); transform-origin: 362.103px 332.24px;" id="elyjk4ssboy8" class="animable"></path><path d="M366.54,330a.24.24,0,0,1,.23-.24.25.25,0,0,1,.25.24v2.7a1.54,1.54,0,0,0,3.07,0V330a.17.17,0,0,1,0-.12v0s0,0,0,0a.18.18,0,0,1,.09-.06h.11l.12.05a.31.31,0,0,1,.07.09.19.19,0,0,1,0,.1v4.34a2.34,2.34,0,0,1-2.37,2.33,2.5,2.5,0,0,1-1-.23.23.23,0,0,1-.1-.32.25.25,0,0,1,.31-.13,1.73,1.73,0,0,0,.81.2,1.87,1.87,0,0,0,1.88-1.85V334a2.08,2.08,0,0,1-1.54.71,2,2,0,0,1-2-2Z" style="fill: rgb(255, 255, 255); transform-origin: 368.478px 333.245px;" id="elo1wf8hbsul" class="animable"></path><path d="M372.26,332.24a2.41,2.41,0,1,1,4.81-.18h0v0a.23.23,0,0,1-.24.22h-4.08a2,2,0,0,0,1.92,1.91,1.9,1.9,0,0,0,1.61-.9.23.23,0,0,1,.32-.09.26.26,0,0,1,.08.35,2.36,2.36,0,0,1-2,1.13A2.45,2.45,0,0,1,372.26,332.24Zm.52-.4h3.76a1.9,1.9,0,0,0-3.76,0Z" style="fill: rgb(255, 255, 255); transform-origin: 374.66px 332.147px;" id="el9num2zrp93l" class="animable"></path><path d="M378.58,330a.25.25,0,1,1,.49,0v1.09a.75.75,0,0,1,.07-.12,2.38,2.38,0,0,1,2-1.22.25.25,0,0,1,0,.49,1.8,1.8,0,0,0-1.44.81,4.4,4.4,0,0,0-.6,1.16.15.15,0,0,0,0,.08v2.18a.25.25,0,1,1-.49,0Z" style="fill: rgb(255, 255, 255); transform-origin: 379.958px 332.235px;" id="elb3ekjpb9j4l" class="animable"></path><path d="M385.68,334.28l3.32-3a1.85,1.85,0,0,0,.61-1.36,1.84,1.84,0,0,0-1.82-1.82,1.81,1.81,0,0,0-1.24.47l-.35.31a.24.24,0,1,1-.33-.35l.34-.33a2.43,2.43,0,0,1,1.58-.6,2.33,2.33,0,0,1,2.31,2.32,2.35,2.35,0,0,1-.76,1.72l-2.84,2.57h3.35a.25.25,0,0,1,.25.25.25.25,0,0,1-.25.25h-4a.22.22,0,0,1-.19-.08A.26.26,0,0,1,385.68,334.28Z" style="fill: rgb(255, 255, 255); transform-origin: 387.851px 331.155px;" id="ely1cwxonsj1" class="animable"></path><path d="M355,349.35h0a.24.24,0,0,1-.24-.24v-6.62a.25.25,0,0,1,.49,0v6.36h3.4a.26.26,0,0,1,.26.26.25.25,0,0,1-.26.24Z" style="fill: rgb(255, 255, 255); transform-origin: 356.835px 345.82px;" id="elzbosipdnmah" class="animable"></path><path d="M364.53,344.62v4.49a.25.25,0,0,1-.49,0v-.74a2.34,2.34,0,0,1-1.87,1,2.49,2.49,0,0,1,0-5,2.3,2.3,0,0,1,1.87,1v-.73a.24.24,0,0,1,.24-.24A.24.24,0,0,1,364.53,344.62Zm-.49,2.24a1.87,1.87,0,1,0-1.87,2A1.95,1.95,0,0,0,364,346.86Z" style="fill: rgb(255, 255, 255); transform-origin: 362.1px 346.87px;" id="elnat2n67c0xh" class="animable"></path><path d="M366.54,344.61a.23.23,0,0,1,.23-.23.24.24,0,0,1,.25.23v2.7a1.54,1.54,0,0,0,3.07,0v-2.7a.17.17,0,0,1,0-.12s0,0,0,0h0a.18.18,0,0,1,.09-.06h.11l.12.05s.06.05.07.08a.19.19,0,0,1,0,.1V349a2.35,2.35,0,0,1-2.37,2.34,2.5,2.5,0,0,1-1-.23.24.24,0,0,1-.1-.33.26.26,0,0,1,.31-.12,1.87,1.87,0,0,0,2.69-1.66v-.32a2,2,0,0,1-3.55-1.32Z" style="fill: rgb(255, 255, 255); transform-origin: 368.473px 347.86px;" id="elgol3q3xtzc5" class="animable"></path><path d="M372.26,346.87a2.41,2.41,0,0,1,4.81-.18h0v0a.23.23,0,0,1-.24.23h-4.08a2,2,0,0,0,1.92,1.9,1.88,1.88,0,0,0,1.61-.9.23.23,0,0,1,.32-.08.25.25,0,0,1,.08.34,2.36,2.36,0,0,1-2,1.13A2.45,2.45,0,0,1,372.26,346.87Zm.52-.39h3.76a1.9,1.9,0,0,0-3.76,0Z" style="fill: rgb(255, 255, 255); transform-origin: 374.665px 346.903px;" id="el83sb3g2heou" class="animable"></path><path d="M378.58,344.63a.24.24,0,0,1,.25-.24.24.24,0,0,1,.24.24v1.1a.75.75,0,0,1,.07-.12,2.38,2.38,0,0,1,2-1.22.24.24,0,0,1,.24.24.25.25,0,0,1-.24.25,1.77,1.77,0,0,0-1.44.81,4.23,4.23,0,0,0-.6,1.15.16.16,0,0,0,0,.09v2.18a.24.24,0,0,1-.24.24.24.24,0,0,1-.25-.24Z" style="fill: rgb(255, 255, 255); transform-origin: 379.98px 346.87px;" id="elq58g0st65s" class="animable"></path><path d="M390,342.69l-1.84,1.89a2.38,2.38,0,0,1,1.92,2.36,2.37,2.37,0,0,1-.71,1.7,2.42,2.42,0,0,1-1.71.71,2.35,2.35,0,0,1-1.69-.71.25.25,0,0,1,0-.36.24.24,0,0,1,.35,0,1.92,1.92,0,0,0,2.69,0,1.86,1.86,0,0,0,.56-1.34,1.91,1.91,0,0,0-1.9-1.9.26.26,0,0,1-.2-.1h0a.27.27,0,0,1,0-.37l1.77-1.82H386.5a.25.25,0,1,1,0-.5h3.31a.25.25,0,0,1,.26.25.2.2,0,0,1,0,.11A.22.22,0,0,1,390,342.69Z" style="fill: rgb(255, 255, 255); transform-origin: 387.987px 345.8px;" id="elz1yej458zpn" class="animable"></path><rect x="344.67" y="325.56" width="3.18" height="12.06" style="fill: rgb(199, 199, 199); transform-origin: 346.26px 331.59px;" id="elu0fxmpbjgte" class="animable"></rect><rect x="344.67" y="339.45" width="3.18" height="12.06" style="fill: rgb(166, 166, 166); transform-origin: 346.26px 345.48px;" id="elnwcwwybqcu" class="animable"></rect><rect x="344.67" y="311.03" width="3.18" height="12.06" style="fill: rgb(255, 255, 255); transform-origin: 346.26px 317.06px;" id="el90u2o2fcfv" class="animable"></rect><rect x="313.26" y="359.01" width="18.68" height="0.43" style="fill: rgb(255, 255, 255); transform-origin: 322.6px 359.225px;" id="elgxxe9g18fe" class="animable"></rect><rect x="332.49" y="316.32" width="6.47" height="5.43" style="fill: rgb(255, 255, 255); transform-origin: 335.725px 319.035px;" id="elhkagovdyat" class="animable"></rect><path d="M338.18,316.92h-.75v-1.43c0-1.58-.56-2.37-1.65-2.37-1.78,0-1.8,2.1-1.8,2.19v1.61h-.76v-1.61a2.66,2.66,0,0,1,2.56-2.94c1.55,0,2.4,1.1,2.4,3.12Z" style="fill: rgb(255, 255, 255); transform-origin: 335.693px 314.645px;" id="elrah9h1gq41p" class="animable"></path><path d="M403,320.37a3.31,3.31,0,1,1,3.31-3.31A3.32,3.32,0,0,1,403,320.37Zm0-6.19a2.88,2.88,0,1,0,2.88,2.88A2.88,2.88,0,0,0,403,314.18Z" style="fill: rgb(255, 255, 255); transform-origin: 403px 317.06px;" id="elbw24oti9bmh" class="animable"></path><path d="M403,334.9a3.31,3.31,0,1,1,3.31-3.31A3.31,3.31,0,0,1,403,334.9Zm0-6.19a2.88,2.88,0,1,0,2.88,2.88A2.88,2.88,0,0,0,403,328.71Z" style="fill: rgb(255, 255, 255); transform-origin: 403px 331.59px;" id="eldevbkz4xiwr" class="animable"></path><path d="M403,349.43a3.31,3.31,0,1,1,3.31-3.3A3.31,3.31,0,0,1,403,349.43Zm0-6.19a2.89,2.89,0,1,0,2.88,2.89A2.89,2.89,0,0,0,403,343.24Z" style="fill: rgb(255, 255, 255); transform-origin: 403px 346.12px;" id="el58ds01961v8" class="animable"></path></g><g id="freepik--tools-1--inject-31" class="animable" style="transform-origin: 97.265px 156.085px;"><rect x="71.25" y="58.25" width="52.03" height="195.67" style="fill: rgb(219, 219, 219); transform-origin: 97.265px 156.085px;" id="elrqdyiriuse" class="animable"></rect><g id="elxhfo12qukwf"><rect x="75.26" y="59.91" width="0.43" height="4.55" style="fill: rgb(255, 255, 255); transform-origin: 75.475px 62.185px; transform: rotate(-45deg);" class="animable"></rect></g><g id="elssithue2k7p"><rect x="73.2" y="61.98" width="4.55" height="0.43" style="fill: rgb(255, 255, 255); transform-origin: 75.475px 62.195px; transform: rotate(-45deg);" class="animable"></rect></g><g id="el6pp1i4mmtny"><rect x="117.67" y="61.65" width="0.43" height="2.7" style="fill: rgb(255, 255, 255); transform-origin: 117.885px 63px; transform: rotate(-45.01deg);" class="animable"></rect></g><g id="elfg67onm4po4"><rect x="116.54" y="61.18" width="2.7" height="0.43" style="fill: rgb(255, 255, 255); transform-origin: 117.89px 61.395px; transform: rotate(-44.99deg);" class="animable"></rect></g><g id="elnze2fah8yl"><rect x="119.78" y="61.65" width="0.43" height="2.7" style="fill: rgb(255, 255, 255); transform-origin: 119.995px 63px; transform: rotate(-45deg);" class="animable"></rect></g><g id="el5ej7j4h58ie"><rect x="118.64" y="61.18" width="2.7" height="0.43" style="fill: rgb(255, 255, 255); transform-origin: 119.99px 61.395px; transform: rotate(-44.99deg);" class="animable"></rect></g><path d="M85.63,90.81l-2.24-5.4-4,3.1V71.15L91.53,83.41l-5.08.76,2.23,5.38Zm-1.88-6.75,2.34,5.64,1.48-.61-2.32-5.6,4.5-.67-9.5-9.6V86.78Z" style="fill: rgb(255, 255, 255); transform-origin: 85.46px 80.98px;" id="elbi4o48vitt" class="animable"></path><polygon points="113.31 83.83 115.59 89.32 113.32 90.26 111.03 84.73 107.28 87.64 107.28 72.19 118.1 83.12 113.31 83.83" style="fill: rgb(255, 255, 255); transform-origin: 112.69px 81.225px;" id="el8morst3mxmi" class="animable"></polygon><g id="el14fbdhxstv9q"><rect x="76.64" y="111.59" width="17.18" height="1.28" style="fill: rgb(255, 255, 255); transform-origin: 85.23px 112.23px; transform: rotate(-52.08deg);" class="animable"></rect></g><polygon points="84.22 106.77 81.64 107.25 81.06 109.97 80.48 107.25 77.9 106.77 80.47 106.14 81.06 103.56 81.65 106.14 84.22 106.77" style="fill: rgb(255, 255, 255); transform-origin: 81.06px 106.765px;" id="el4pbcpqehgz" class="animable"></polygon><polygon points="89.95 102.46 88.43 102.74 88.09 104.34 87.75 102.74 86.24 102.46 87.75 102.09 88.09 100.58 88.44 102.09 89.95 102.46" style="fill: rgb(255, 255, 255); transform-origin: 88.095px 102.46px;" id="elizxjncuv0xd" class="animable"></polygon><polygon points="91.74 111.04 90.87 111.2 90.68 112.11 90.49 111.2 89.62 111.04 90.48 110.83 90.68 109.97 90.88 110.83 91.74 111.04" style="fill: rgb(255, 255, 255); transform-origin: 90.68px 111.04px;" id="elqdk3tiruaf" class="animable"></polygon><g id="elc3mduds1dis"><rect x="101.73" y="160.1" width="17.18" height="1.28" style="fill: rgb(255, 255, 255); transform-origin: 110.32px 160.74px; transform: rotate(-52.09deg);" class="animable"></rect></g><polygon points="113.31 114.62 115.59 120.1 113.32 121.04 111.03 115.52 107.28 118.43 107.28 102.97 118.1 113.9 113.31 114.62" style="fill: rgb(255, 255, 255); transform-origin: 112.69px 112.005px;" id="el5w7w5rvswod" class="animable"></polygon><path d="M106.23,112.51c-2.23,0-4-.78-4.57-2-.89-1.76-.22-5.48,5.32-8.5,4.4-2.4,8.79-1.41,9.87.33a3.55,3.55,0,0,1,.17,3,10.7,10.7,0,0,1-6.08,6.12h0A11.76,11.76,0,0,1,106.23,112.51Zm6.16-11a10.49,10.49,0,0,0-5,1.34c-5,2.71-5.68,6-5,7.36s4.17,2.28,8.18.51h0a10,10,0,0,0,5.61-5.59,2.79,2.79,0,0,0-.08-2.25C115.64,102.05,114.22,101.47,112.39,101.47Z" style="fill: rgb(255, 255, 255); transform-origin: 109.304px 106.547px;" id="elh8cpdl2q6v" class="animable"></path><path d="M103.82,113.61a2,2,0,0,1-1.62-.82h0a1.81,1.81,0,0,1-.25-2,2.56,2.56,0,0,1,2.2-1.32,1.92,1.92,0,0,1,1.77,1,2,2,0,0,1-.78,2.7A2.55,2.55,0,0,1,103.82,113.61Zm-.94-1.33a1.31,1.31,0,0,0,1.81.22,1.16,1.16,0,0,0,.48-1.58,1.07,1.07,0,0,0-1-.55,1.73,1.73,0,0,0-1.46.84,1,1,0,0,0,.17,1.07Z" style="fill: rgb(255, 255, 255); transform-origin: 103.96px 111.539px;" id="elr1fbkh2lrib" class="animable"></path><path d="M106.22,115.88l-.51-.68c.26-.19.55-.47.51-.76-.06-.5-1-1-1.45-1.19l.31-.8c.19.08,1.83.75,2,1.88A1.64,1.64,0,0,1,106.22,115.88Z" style="fill: rgb(255, 255, 255); transform-origin: 105.927px 114.165px;" id="elu7djbzcfjw" class="animable"></path><path d="M79.79,134.72a21,21,0,0,1,8.36-4.43L90.86,133a21,21,0,0,1-4.43,8.37c-4.33-1.23-7.87,2.18-7.87,2.18l-.28-.28,5.5-5.51a1.2,1.2,0,1,0-.39-.39l-5.5,5.51-.28-.28S81,139.05,79.79,134.72Z" style="fill: rgb(255, 255, 255); transform-origin: 84.235px 136.92px;" id="el70jfkpnnep" class="animable"></path><g id="ely9npou8zsph"><rect x="87.19" y="129.94" width="5.65" height="2.38" style="fill: rgb(255, 255, 255); transform-origin: 90.015px 131.13px; transform: rotate(-135deg);" class="animable"></rect></g><path d="M106.51,134.72a21,21,0,0,1,8.37-4.43l2.7,2.71a21.08,21.08,0,0,1-4.42,8.37c-4.33-1.23-7.88,2.18-7.88,2.18l-.28-.28,5.5-5.51a1.2,1.2,0,1,0-.39-.39l-5.5,5.51-.28-.28S107.73,139.05,106.51,134.72Z" style="fill: rgb(255, 255, 255); transform-origin: 110.955px 136.92px;" id="elatlz7s8w8kh" class="animable"></path><g id="eli7qe5i44rm"><rect x="113.92" y="129.94" width="5.65" height="2.38" style="fill: rgb(255, 255, 255); transform-origin: 116.745px 131.13px; transform: rotate(-135deg);" class="animable"></rect></g><path d="M104.61,143.3a3.31,3.31,0,0,1-2.91-1.44c-.59-.94-1-2.78.64-6.12a3.19,3.19,0,0,0,.25-2.91,3.82,3.82,0,0,0-2.64-1.49l.1-.85c.09,0,2.37.29,3.28,1.93a4,4,0,0,1-.22,3.69c-1.44,3-1.17,4.53-.69,5.3a2.51,2.51,0,0,0,2.19,1Z" style="fill: rgb(255, 255, 255); transform-origin: 102.28px 136.897px;" id="elidp3vu055q" class="animable"></path><path d="M90.32,152.84v3.47H89.16a.48.48,0,0,1-.49-.38c0-.12-.06-.39-.1-.83h-3v10.41l.59.1c.14,0,.24.06.3.06a.71.71,0,0,1,.12,0,.6.6,0,0,1,.53.63v1.2h-5.8v-1.2a.58.58,0,0,1,.5-.63.71.71,0,0,1,.12,0c.07,0,.17,0,.31-.06l.59-.1V155.08h-3c0,.44-.08.73-.1.85a.44.44,0,0,1-.46.38H78.12v-3.47h12.2Z" style="fill: rgb(255, 255, 255); transform-origin: 84.22px 160.17px;" id="elees6751d9c" class="animable"></path><path d="M92.38,195.8H77.48V180.9h14.9Zm-13.62-1.28H91.1V182.18H78.76Z" style="fill: rgb(255, 255, 255); transform-origin: 84.93px 188.35px;" id="el4lt8q4i42l" class="animable"></path><path d="M115.86,240.2H103V228.69h12.86Zm-11.59-1.27h10.31v-9H104.27Z" style="fill: rgb(255, 255, 255); transform-origin: 109.43px 234.445px;" id="elxjg1ot5coyh" class="animable"></path><path d="M108.79,243.6h-9v-8.07h9Zm-7.68-1.28h6.41v-5.51h-6.41Z" style="fill: rgb(255, 255, 255); transform-origin: 104.29px 239.565px;" id="elrm5y09h7q3" class="animable"></path><g id="elcbx96z992vn"><rect x="109.41" y="232.56" width="4.58" height="0.85" style="fill: rgb(255, 255, 255); transform-origin: 111.7px 232.985px; transform: rotate(-45deg);" class="animable"></rect></g><polygon points="113.94 233.29 113.09 233.29 113.09 231.59 111.46 231.59 111.46 230.74 113.94 230.74 113.94 233.29" style="fill: rgb(255, 255, 255); transform-origin: 112.7px 232.015px;" id="elay78dz1kyo" class="animable"></polygon><path d="M116.56,195.8h-14.9V180.9h7a5.65,5.65,0,0,1,11.24.76,5.69,5.69,0,0,1-3.3,5.14Zm-13.62-1.27h12.35v-8.6l.41-.15a4.38,4.38,0,0,0-1.49-8.5,4.35,4.35,0,0,0-4.37,4.27v.63h-6.89Z" style="fill: rgb(255, 255, 255); transform-origin: 110.78px 185.935px;" id="elzaywdz3tgd" class="animable"></path><path d="M111.08,185.08c-2.22-.37-2.53,2-2.57,2.88a2.55,2.55,0,0,1-1.79,2s3.44.95,5.17-.8S112.56,185.33,111.08,185.08Z" style="fill: rgb(255, 255, 255); transform-origin: 109.752px 187.629px;" id="elisnoqal0gpk" class="animable"></path><path d="M118.68,177.93l-5.57,7.87a2.4,2.4,0,0,0-1.72-1.32l-.39,0,4.62-6.52Z" style="fill: rgb(255, 255, 255); transform-origin: 114.84px 181.865px;" id="elhangr1lm2mk" class="animable"></path><g id="elksd9soa47uh"><rect x="81.26" y="208.36" width="5.54" height="11.28" style="fill: rgb(255, 255, 255); transform-origin: 84.03px 214px; transform: rotate(45deg);" class="animable"></rect></g><g id="elmih1qza386b"><rect x="86.75" y="207.31" width="5.54" height="2.39" style="fill: rgb(255, 255, 255); transform-origin: 89.52px 208.505px; transform: rotate(45deg);" class="animable"></rect></g><polygon points="77.74 220.28 78.05 216.12 78.9 216.19 78.66 219.36 81.84 219.12 81.9 219.97 77.74 220.28" style="fill: rgb(255, 255, 255); transform-origin: 79.82px 218.2px;" id="el0olazmjgv3ma" class="animable"></polygon><path d="M113.76,213.66a3,3,0,1,1,3-3A3,3,0,0,1,113.76,213.66Zm0-4.73a1.73,1.73,0,1,0,1.73,1.73A1.72,1.72,0,0,0,113.76,208.93Z" style="fill: rgb(255, 255, 255); transform-origin: 113.76px 210.66px;" id="elxemzl6aabkf" class="animable"></path><path d="M100,218.36l11.78-6.49,2,1.15s-8.57,5.24-10.09,5.8S100,218.36,100,218.36Z" style="fill: rgb(255, 255, 255); transform-origin: 106.89px 215.429px;" id="el26iq5lk5gpp" class="animable"></path><path d="M113.72,220.34a3,3,0,1,1,3-3A3,3,0,0,1,113.72,220.34Zm0-4.73a1.73,1.73,0,1,0,1.73,1.73A1.73,1.73,0,0,0,113.72,215.61Z" style="fill: rgb(255, 255, 255); transform-origin: 113.72px 217.34px;" id="elva9ny1tchke" class="animable"></path><path d="M99.92,209.63l11.78,6.49,2-1.15s-8.58-5.24-10.1-5.8S99.92,209.63,99.92,209.63Z" style="fill: rgb(255, 255, 255); transform-origin: 106.81px 212.561px;" id="elsr3jutm1b9r" class="animable"></path><path d="M77.56,241.67v-11l7,5.53Zm1.28-8.43v5.81l3.7-2.9Z" style="fill: rgb(255, 255, 255); transform-origin: 81.06px 236.17px;" id="elpzu22inqsk" class="animable"></path><polygon points="92.27 230.79 92.27 241.5 85.45 236.15 92.27 230.79" style="fill: rgb(255, 255, 255); transform-origin: 88.86px 236.145px;" id="elu16kx6d9k6o" class="animable"></polygon><path d="M85.29,242h-.43v-1.7h.43Zm0-3.4h-.43v-1.7h.43Zm0-3.4h-.43v-1.7h.43Zm0-3.4h-.43v-1.7h.43Z" style="fill: rgb(255, 255, 255); transform-origin: 85.075px 236.05px;" id="elpggektgx5g" class="animable"></path></g><g id="freepik--Character--inject-31" class="animable" style="transform-origin: 168.081px 277.578px;"><path d="M213.52,157.84s20.23-31.45,21.75-32.64,3.31.92,4.75,2.51a19.4,19.4,0,0,1,1.59,3.56c2.27,5.72,6.49,15.74,13.1,11.64,8.68-5.4-.77-27.91-2.8-31.2a12.07,12.07,0,0,0-4-3.16c-5.4-3-14.75-5.71-21.17-1.88-8.8,5.23-15.18,14.48-21.29,22.1Z" style="fill: rgb(235, 148, 129); transform-origin: 231.884px 131.312px;" id="elu6g417do1oe" class="animable"></path><path d="M213.52,157.84s20.23-31.45,21.75-32.64,3.31.92,4.75,2.51a19.4,19.4,0,0,1,1.59,3.56c2.27-8.08,4.74-17,6.29-22.72-5.4-3-14.75-5.71-21.17-1.88-8.8,5.23-15.18,14.48-21.29,22.1Z" style="fill: rgb(38, 50, 56); transform-origin: 226.67px 131.312px;" id="eli4gfw4bfuck" class="animable"></path><path d="M249.08,189.83c.51-2.14,4.08-11,9.51-24.12-5.37-9.58-13.84-29.92-16.1-35.29-3.54-5.55-8-19.43-7.36-19.68,1.12-.46,5.07-2.11,9.7-4.48,6.11-3.15,13.43-7.56,17-12.17,2-2.52,2.8-5.06,1.79-7.52C261.81,82.16,252,85.74,240,89c-16.37,4.38-36.24,10.65-40.11,18.91-5.73,12.2-2.36,32.23-2,38.31s-3.1,26.71-3.1,26.71C215.08,183.44,248.38,192.67,249.08,189.83Z" style="fill: rgb(235, 148, 129); transform-origin: 229.423px 137.433px;" id="el56dobqy5j45" class="animable"></path><path d="M258.59,165.71c1.86-4.48,3.57-8.45,4.8-11.11,4.87-10.5,4.18-17.91,2.27-25.55s7.84-29.12-4.55-25.42-12.94,29.49-16.36,29c-.65-.1-1.44-.93-2.26-2.23C244.75,135.79,253.22,156.13,258.59,165.71Z" style="fill: rgb(235, 148, 129); transform-origin: 255.002px 134.458px;" id="elrk9pi52o6hj" class="animable"></path><path d="M240.51,126.71c-.09-.29.11-.32.28,0,.51,1,2.86,5.17,3.89,4.76,1.79-.73,4.47-12.17,6.44-16.77.1-.25.45-.12.34.11a75.78,75.78,0,0,0-2.13,7.42c-.64,2.35-2.05,9.64-4.3,10.55C243.52,133.38,240.86,127.85,240.51,126.71Z" style="fill: rgb(38, 50, 56); transform-origin: 245.984px 123.695px;" id="elvrq30k8f90r" class="animable"></path><path d="M249.08,189.83C248,205.57,232.61,263.7,229.92,268c-6.59,10.45-68.92,41.12-75.28,43.41-16.73,6-33.29-2.25-11.79-24.66,10.14-10.56,38.75-43.68,40.94-47.4s11-68.89,11.83-71.88S250.22,173.3,249.08,189.83Z" style="fill: rgb(235, 148, 129); transform-origin: 190.864px 240.1px;" id="el3twgto4j73x" class="animable"></path><path d="M194,157.84,252.78,195s-11.86,60.3-21.17,73.16c-8.25,11.39-37.6,29.05-75.15,43.45-27.47,10.53-31.56-8.09-14.53-25.32,9.53-9.65,39.37-46.62,40.9-48S194,157.84,194,157.84Z" style="fill: rgb(99, 59, 255); transform-origin: 192.277px 236.257px;" id="elqpal7fpr80d" class="animable"></path><path d="M247.61,210.65c-9-4.79-45.07-25.75-52.55-30.81-.52-.35-.43-.76.16-.47,27.29,13.72,44,25.77,52.57,30.92C248,210.42,247.84,210.77,247.61,210.65Z" style="fill: rgb(38, 50, 56); transform-origin: 221.303px 194.973px;" id="elxjg3m6wtmv" class="animable"></path><path d="M212.71,284c-.81-.25-7.49-10.78-6.89-11.31s11-5.83,14.21-8.48,8.36-15.88,9.7-16.62,9.45,2.08,9.45,2.08.22,20-9.07,26.74C222.85,281.67,212.71,284,212.71,284Z" style="fill: rgb(99, 59, 255); transform-origin: 222.481px 265.733px;" id="ela8jrjg3imdn" class="animable"></path><g id="elhtbv0oklteg"><path d="M212.71,284c-.81-.25-7.49-10.78-6.89-11.31s11-5.83,14.21-8.48,8.36-15.88,9.7-16.62,9.45,2.08,9.45,2.08.22,20-9.07,26.74C222.85,281.67,212.71,284,212.71,284Z" style="fill: rgb(0, 1, 2); opacity: 0.1; transform-origin: 222.481px 265.733px;" class="animable"></path></g><path d="M225.8,265.11a12,12,0,0,1-3.63-3.13,13.22,13.22,0,0,1-1.31-2,8.67,8.67,0,0,1-.89-2.3,8.6,8.6,0,0,1,2.06,1.37,13.15,13.15,0,0,1,1.63,1.71,13,13,0,0,1,1.3,2A7.09,7.09,0,0,1,225.8,265.11Z" style="fill: rgb(38, 50, 56); transform-origin: 222.885px 261.395px;" id="elchd6c5d4d8q" class="animable"></path><path d="M235.46,253.07a12,12,0,0,1,.24-4.79,13.06,13.06,0,0,1,.74-2.24,8.64,8.64,0,0,1,1.27-2.12,8.66,8.66,0,0,1,.19,2.46,13.39,13.39,0,0,1-1.11,4.59A7.56,7.56,0,0,1,235.46,253.07Z" style="fill: rgb(38, 50, 56); transform-origin: 236.621px 248.495px;" id="elateqaklnrjb" class="animable"></path><path d="M233.36,253.06a11.93,11.93,0,0,1-.83-4.72,13.44,13.44,0,0,1,.22-2.35,8.73,8.73,0,0,1,.77-2.35,9,9,0,0,1,.73,2.37,13.31,13.31,0,0,1-.06,4.71A7.3,7.3,0,0,1,233.36,253.06Z" style="fill: rgb(38, 50, 56); transform-origin: 233.478px 248.35px;" id="el5pkdq96a1bx" class="animable"></path><path d="M204.3,278.3a12.26,12.26,0,0,1,4.78-.89,13.85,13.85,0,0,1,2.39.2,8.85,8.85,0,0,1,2.39.73,8.5,8.5,0,0,1-2.39.76,13.76,13.76,0,0,1-4.79,0A7.6,7.6,0,0,1,204.3,278.3Z" style="fill: rgb(38, 50, 56); transform-origin: 209.08px 278.359px;" id="elcg9k38pl9r7" class="animable"></path><path d="M216.74,261.71a12.3,12.3,0,0,1,4.78-.89,13.83,13.83,0,0,1,2.39.19,9.26,9.26,0,0,1,2.39.74,8.73,8.73,0,0,1-2.39.76,13.7,13.7,0,0,1-2.39.21,13.9,13.9,0,0,1-2.4-.21A7.6,7.6,0,0,1,216.74,261.71Z" style="fill: rgb(38, 50, 56); transform-origin: 221.52px 261.769px;" id="elepeovbhhom" class="animable"></path><g id="elazh56dqvyi9"><path d="M180.55,301.39c-7.51,3.48-15.59,6.91-24.09,10.17-27.47,10.53-31.56-8.09-14.53-25.32,1-1,2.28-2.38,3.7-4Z" style="fill: rgb(0, 1, 2); opacity: 0.1; transform-origin: 156.162px 298.432px;" class="animable"></path></g><path d="M201.44,461.84,51,462.29c.37-3.08,38.29-150.13,68.31-175.08,12.8-10.64,36.32-2.83,39.31-.39C187.69,310.53,203.62,460,201.44,461.84Z" style="fill: rgb(99, 59, 255); transform-origin: 126.319px 372.028px;" id="elru4bls6tulh" class="animable"></path><path d="M118.24,291.68c1.55,1.64,3.15,3.23,4.77,4.8s3.3,3.06,5,4.56c3.38,3,6.83,5.86,10.41,8.57s7.22,5.34,11,7.77,7.63,4.7,11.57,6.84l-1.22.38A6,6,0,0,0,160,324c.09-.25.16-.52.24-.78.14-.53.27-1.07.38-1.63.24-1.1.42-2.22.59-3.34.33-2.26.57-4.53.79-6.81s.37-4.58.55-6.87l.46-6.9c.15,2.31.23,4.61.28,6.92s0,4.61,0,6.93-.22,4.62-.46,6.93c-.14,1.16-.29,2.32-.5,3.47-.1.58-.22,1.16-.35,1.75-.08.29-.15.58-.24.88q-.06.21-.15.45a2.63,2.63,0,0,1-.21.51l-.4.83-.82-.45A134.3,134.3,0,0,1,148.37,319c-1.91-1.22-3.75-2.56-5.61-3.87-.92-.66-1.8-1.37-2.71-2.06s-1.8-1.38-2.67-2.11a128.23,128.23,0,0,1-10.12-9.08A102.05,102.05,0,0,1,118.24,291.68Z" style="fill: rgb(38, 50, 56); transform-origin: 140.776px 309.01px;" id="elkyre2v5f4lb" class="animable"></path><path d="M107,327.76c8.09,54.89,46.4,138.31,65.35,141.15,21.11,3.16,10.71-71.87,8-73.65-2-1.34-30.86-47-51.45-80.61S105,314.19,107,327.76Z" style="fill: rgb(235, 148, 129); transform-origin: 145.901px 384.535px;" id="ellph4gor6otc" class="animable"></path><path d="M180.61,395c-3.31-4.57-41.76-66.73-54.09-85.33s-23.38-11.54-20.75,17,26.81,97.54,47.72,126.58c20.13,28,32.24,17.19,33.58-9.8C188.17,421.35,180.61,395,180.61,395Z" style="fill: rgb(99, 59, 255); transform-origin: 146.279px 384.514px;" id="elb2jt0umbm5r" class="animable"></path><path d="M185.48,402.83c-3.72-5.54-7.36-11.14-11-16.75s-7.18-11.26-10.77-16.89l-10.57-17-5.22-8.54c-1.71-2.87-3.45-5.72-5.13-8.61,1.87,2.77,3.69,5.57,5.54,8.35l5.45,8.4,10.76,16.89c3.52,5.67,7.09,11.32,10.57,17S182.1,397.08,185.48,402.83Z" style="fill: rgb(38, 50, 56); transform-origin: 164.135px 368.935px;" id="elah6n2c81wio" class="animable"></path><path d="M151.3,348a36.93,36.93,0,0,1-2.09-4.85c-.29-.83-.57-1.66-.82-2.49s-.49-1.69-.72-2.55a23.66,23.66,0,0,1,2.23,4.79A30.51,30.51,0,0,1,151.3,348Z" style="fill: rgb(38, 50, 56); transform-origin: 149.485px 343.055px;" id="el9ljcj5tlmbg" class="animable"></path><path d="M106.48,344.07c10.49,30.82,21.4,61.63,36,90.75,5,9.6,10.33,19.13,17.36,27.44-24.7-25.8-44.2-83.29-53.4-118.19Z" style="fill: rgb(38, 50, 56); transform-origin: 133.14px 403.165px;" id="elvdfe2vzfu6" class="animable"></path><path d="M106.48,351.61a38.08,38.08,0,0,1,4.78,7.89,14.57,14.57,0,0,1-4.78-7.89Z" style="fill: rgb(38, 50, 56); transform-origin: 108.87px 355.555px;" id="ellsxgjxvavoh" class="animable"></path><path d="M173.76,469.44c15.78-1.84,28.91-19.9,68.85-68.56,5.53-6.73-31.49-60.66-37.76-53.77-7.9,8.68-36.67,44.05-38.45,46.91C151.41,418.08,163.07,470.69,173.76,469.44Z" style="fill: rgb(235, 148, 129); transform-origin: 201.219px 407.983px;" id="eld9mlze1sfj" class="animable"></path><path d="M266.41,290.66c5,5.94-10.67,17.12-10.67,17.12a14.41,14.41,0,0,1,9.52,2.25c4.8,3.47,1.47,12.52,1.47,12.52a17.74,17.74,0,0,1,9.66,4c4.26,3.78,2.2,13.4,2.2,13.4a15.54,15.54,0,0,1,6.3,8.83c2.2,9.74-9.45,19.76-15.44,27.38-6.41,8.17-26.25,21.68-29.22,27.66L193.47,361.4s15.83-45.17,25-52.14C226.19,303.39,258.71,281.57,266.41,290.66Z" style="fill: rgb(235, 148, 129); transform-origin: 239.316px 346.147px;" id="elceeng5mmk2" class="animable"></path><path d="M255.47,307.72c-9.7,4.27-18.37,10.86-26.66,17.31a.19.19,0,0,0,.23.29c8.17-6.51,18.28-11,26.69-17.17A.25.25,0,0,0,255.47,307.72Z" style="fill: rgb(38, 50, 56); transform-origin: 242.309px 316.512px;" id="ellsyepqwm1n" class="animable"></path><path d="M266,322.12a28,28,0,0,0-5.79,4.33q-2.91,2.51-5.73,5.12-5.67,5.21-11.06,10.7c-.16.16.05.44.23.28,3.76-3.45,7.58-6.85,11.49-10.15q2.94-2.47,5.91-4.9a33,33,0,0,0,5.39-4.83A.37.37,0,0,0,266,322.12Z" style="fill: rgb(38, 50, 56); transform-origin: 254.932px 332.347px;" id="elinh7rvy4rf" class="animable"></path><path d="M278.43,340.05c-1.92.82-3.52,2.75-5,4.17-1.68,1.62-3.38,3.23-5.08,4.83-3.41,3.2-6.82,6.4-10.34,9.48-.18.15.05.44.23.28,3.59-3.11,7.22-6.17,10.78-9.31q2.63-2.31,5.22-4.66c1.48-1.32,3.47-2.82,4.36-4.63C278.64,340.11,278.52,340,278.43,340.05Z" style="fill: rgb(38, 50, 56); transform-origin: 268.276px 349.447px;" id="elpt1ujvjs1nn" class="animable"></path><path d="M199.1,351.85l27.42,76.23s-36.85,41.55-53,42c-10.65.29-24.23-53-5.64-78.37Z" style="fill: rgb(99, 59, 255); transform-origin: 192.596px 410.966px;" id="elw94rtt4l61" class="animable"></path><path d="M158.88,429c-.82-6.14-1.59-22.6,8.94-37.39.09-.13.32,0,.24.13-6.78,11.78-9.21,31.28-8.92,37.26C159.14,429.2,158.9,429.19,158.88,429Z" style="fill: rgb(38, 50, 56); transform-origin: 163.262px 410.351px;" id="elaxib86l8j7c" class="animable"></path><path d="M210.62,436.33c-3.47-8.22-6.49-16.62-9.49-25s-6-16.81-8.8-25.3c-1.58-4.8-3.19-9.58-4.6-14.43,0-.13.17-.22.22-.09,3.47,8.2,6.52,16.6,9.57,25s6,16.82,8.92,25.27c1.63,4.78,3.18,9.58,4.59,14.43C211.1,436.39,210.72,436.57,210.62,436.33Z" style="fill: rgb(38, 50, 56); transform-origin: 199.384px 403.946px;" id="elqxjomrikuoq" class="animable"></path><path d="M198.46,351.39a77.52,77.52,0,0,0-6.85,7.84c-2.18,2.7-4.31,5.45-6.43,8.21-4.19,5.49-13.72,16.64-19.66,27.75-.06.13.87-.18.93-.31,2.56-5.43,30.47-39.24,32.36-42.23a5.81,5.81,0,0,0,.46.68.2.2,0,0,0,.37-.13c0-.53-.23-1-.32-1.5A.5.5,0,0,0,198.46,351.39Z" style="fill: rgb(38, 50, 56); transform-origin: 182.58px 373.228px;" id="el259fc0ny392" class="animable"></path><path d="M184.24,467.1a45.61,45.61,0,0,0,5.75-4.31c1.82-1.54,3.58-3.16,5.35-4.78q5.25-4.9,10.38-10c6.85-6.71,13.66-13.49,20.64-20.12l-.05.21-1.41-5.62,1.83,5.5,0,.1-.08.11c-3,3.74-6.24,7.34-9.5,10.89s-6.65,7-10.11,10.32-7,6.62-10.76,9.68q-2.79,2.31-5.76,4.4A32.54,32.54,0,0,1,184.24,467.1Z" style="fill: rgb(38, 50, 56); transform-origin: 205.485px 444.79px;" id="elhpzrj8z8emr" class="animable"></path><path d="M154.68,455.21c-.35-.8,2.7-11.22,3.5-11.1s11.91,9.43,16.1,10.18,18.06-3.93,19.53-3.36,4.61,4.78,4.61,4.78-15.62,17.49-27.07,14.61C162.4,468.07,154.68,455.21,154.68,455.21Z" style="fill: rgb(99, 59, 255); transform-origin: 176.536px 457.375px;" id="eltamf3iuraun" class="animable"></path><g id="elfmvrqdbcavc"><path d="M154.68,455.21c-.35-.8,2.7-11.22,3.5-11.1s11.91,9.43,16.1,10.18,18.06-3.93,19.53-3.36,4.61,4.78,4.61,4.78-15.62,17.49-27.07,14.61C162.4,468.07,154.68,455.21,154.68,455.21Z" style="fill: rgb(0, 1, 2); opacity: 0.1; transform-origin: 176.536px 457.375px;" class="animable"></path></g><path d="M167.87,456.69a12.19,12.19,0,0,1,.06-4.93,14.16,14.16,0,0,1,.68-2.34,9.07,9.07,0,0,1,1.22-2.23,9,9,0,0,1,.29,2.53,13.9,13.9,0,0,1-.27,2.42,12.84,12.84,0,0,1-.7,2.34A7.52,7.52,0,0,1,167.87,456.69Z" style="fill: rgb(38, 50, 56); transform-origin: 168.885px 451.94px;" id="elrjvequ61sdc" class="animable"></path><path d="M172.38,457.57a12.33,12.33,0,0,1,1.47-4.71,13,13,0,0,1,1.33-2A8.79,8.79,0,0,1,177,449a8.8,8.8,0,0,1-.45,2.51,13.49,13.49,0,0,1-1,2.24,12.8,12.8,0,0,1-1.34,2A7.61,7.61,0,0,1,172.38,457.57Z" style="fill: rgb(38, 50, 56); transform-origin: 174.69px 453.285px;" id="eldpqm8imj4fa" class="animable"></path><path d="M153.14,446.58a12.89,12.89,0,0,1,3.87,3.18,14.87,14.87,0,0,1,1.42,2,9.08,9.08,0,0,1,1,2.38,9.09,9.09,0,0,1-2.18-1.38,13.78,13.78,0,0,1-1.75-1.75,13.17,13.17,0,0,1-1.42-2A7.69,7.69,0,0,1,153.14,446.58Z" style="fill: rgb(38, 50, 56); transform-origin: 156.285px 450.36px;" id="elart285o7fa" class="animable"></path><path d="M157.17,305c-7.85,4.19-25.6-4.83-34-13.71-.57-.61-1.45-8.39-3-17.8-1-5.71-2.14-12-3.64-17.74-.31-1.17,38-.73,38-.73s-.37,12.88,2.3,22.8a14.46,14.46,0,0,0,.86,2.27,3.4,3.4,0,0,1,.16.37C159.79,284.71,164.77,300.94,157.17,305Z" style="fill: rgb(235, 148, 129); transform-origin: 138.89px 280.498px;" id="elwa44upgc26" class="animable"></path><path d="M118.78,255.31c4.2,9.2,16.32,30.9,35.5,26.31a22.2,22.2,0,0,0,3.61-1.16,1.5,1.5,0,0,0-.15-.38,15.84,15.84,0,0,1-.87-2.26c-2.67-9.94-2.3-22.82-2.3-22.82S126.91,254.69,118.78,255.31Z" style="fill: rgb(38, 50, 56); transform-origin: 138.335px 268.586px;" id="el4b2879n49ea" class="animable"></path><path d="M97.33,217.18c.37,13.7,19,47.4,30.48,52.44,16.7,7.31,38.05,1.39,42.75-17.32,4.56-18.13-20.45-61.62-32.76-65.58C119.67,180.87,96.78,197,97.33,217.18Z" style="fill: rgb(235, 148, 129); transform-origin: 134.214px 229.082px;" id="elylei1u1ewj" class="animable"></path><path d="M139.24,228.54c-.06-.08-.12.21-.07.3,1.24,2.27,2.29,5.09.58,6.92-.05.05,0,.17.09.12C142.21,234.22,140.79,230.5,139.24,228.54Z" style="fill: rgb(38, 50, 56); transform-origin: 140.126px 232.209px;" id="eln9db9nbav6f" class="animable"></path><path d="M136,227.17c-3.87,1.61-.38,9.21,3.2,7.73S139.19,225.83,136,227.17Z" style="fill: rgb(38, 50, 56); transform-origin: 137.498px 231.051px;" id="elnrv9uct0u2" class="animable"></path><path d="M152.07,222c0-.1.23,0,.27.12,1,2.39,2.56,5,5,4.77.08,0,.13.11,0,.14C154.67,227.86,152.64,224.43,152.07,222Z" style="fill: rgb(38, 50, 56); transform-origin: 154.745px 224.558px;" id="elesladsfpm1b" class="animable"></path><path d="M153,218.58c3.66-2,7.44,5.44,4.05,7.32S150,220.28,153,218.58Z" style="fill: rgb(38, 50, 56); transform-origin: 155.13px 222.221px;" id="elomh0vargrig" class="animable"></path><path d="M129.62,223.17a32.28,32.28,0,0,0,2.85-1.92c1.09-.74,2-1.23,2.54-2.51a1.77,1.77,0,0,0-.81-2c-1.5-.76-3-.18-4.4.67a6.45,6.45,0,0,0-2.9,3.63A1.89,1.89,0,0,0,129.62,223.17Z" style="fill: rgb(38, 50, 56); transform-origin: 130.959px 219.889px;" id="el9575i61xrsg" class="animable"></path><path d="M154,211.43a32.31,32.31,0,0,1-3.38.6c-1.3.21-2.32.52-3.57-.05a1.77,1.77,0,0,1-.81-2c.55-1.59,2.08-2.25,3.63-2.57a6.47,6.47,0,0,1,4.61.6A1.89,1.89,0,0,1,154,211.43Z" style="fill: rgb(38, 50, 56); transform-origin: 150.772px 209.766px;" id="eljk9w4y1f34" class="animable"></path><path d="M145.7,250.87a3.92,3.92,0,0,0,2.62.48,7,7,0,0,0,2.26-1.75.09.09,0,0,1,.16.07,3.51,3.51,0,0,1-2.41,2.65,2.78,2.78,0,0,1-2.81-1.23C145.42,251,145.58,250.83,145.7,250.87Z" style="fill: rgb(38, 50, 56); transform-origin: 148.115px 250.963px;" id="elw1j2zagb9kg" class="animable"></path><path d="M144.94,242.68a8.87,8.87,0,0,0,7,1.12,11,11,0,0,0,2.94-1.19,3.11,3.11,0,0,0,.53-.32l.48-.31a.67.67,0,0,0,.23-.75h0A1.83,1.83,0,0,0,156,241h0l-.1-.21c-.78-1.83-2.22-4.51-2.22-4.51.81,0,4.89,0,4.4-.93-4.06-7.63-8.58-16.12-14.24-22.86a.24.24,0,0,0-.4.26c3.61,7.49,8.52,14.3,12.27,21.76a15.43,15.43,0,0,0-4.31.59c-.22.19,2.88,5.13,3.16,6a.25.25,0,0,1,0,.09c-2.87,1.79-5.59,1.92-9.49,1.23C144.83,242.32,144.72,242.56,144.94,242.68Z" style="fill: rgb(38, 50, 56); transform-origin: 150.768px 228.242px;" id="elm75pjlfhzen" class="animable"></path><path d="M153.39,242.18a10.4,10.4,0,0,1-2.46,4.7,4.64,4.64,0,0,1-2.52,1.35c-2.11.37-2.95-1.33-3.28-3a11.31,11.31,0,0,1-.2-2.65A13.53,13.53,0,0,0,153.39,242.18Z" style="fill: rgb(38, 50, 56); transform-origin: 149.155px 245.231px;" id="elgvub3rfvxfm" class="animable"></path><path d="M150.93,246.88a4.64,4.64,0,0,1-2.52,1.35c-2.11.37-2.95-1.33-3.28-3C147.24,244.54,149.86,245,150.93,246.88Z" style="fill: rgb(255, 152, 185); transform-origin: 148.03px 246.604px;" id="elq8h3u9je61" class="animable"></path><path d="M117.1,234.25c-.5-7.51-8.85-17-6.79-21.29,4.46-9.35,24.12-3.13,34.15-7.22,9.72-4,10.37-11.55,5.36-18.69s-13.9-9.65-25.45-6.76c-12,3-20.33,11.79-24.42,17.68,0,0,.82-4.94-.61-5.78s-4.6,4.9-5.38,7.12a15.72,15.72,0,0,0-.44,5.65,17,17,0,0,0-4.61,1.38c-2.44,1.09-4.75,4.31-4.68,5s3.78-.36,6.3-1.26c0,0-2.06,8,.21,13.24s20.77,26.71,22.84,26.16C116.24,248.74,117.3,237.3,117.1,234.25Z" style="fill: rgb(38, 50, 56); transform-origin: 118.563px 214.303px;" id="el5tuvc7drlf" class="animable"></path><path d="M91.23,209c.07-.08.23,0,.18.09a18.06,18.06,0,0,0-2.17,9.6,22.3,22.3,0,0,0,4.38,10.84c4.39,6.25,10.35,11.09,15.91,16.23.17.15-.08.43-.26.29C103,241,96.5,235.38,92.11,228.57,88.37,222.77,86.83,214.94,91.23,209Z" style="fill: rgb(38, 50, 56); transform-origin: 99.0691px 227.528px;" id="elyczwfntk1qf" class="animable"></path><path d="M108.87,210.58a25.61,25.61,0,0,1,9-3.08c3-.44,6.08.29,9.09.6,6.75.71,13.75.52,20-2.51.08,0,.13.08.06.12-5.52,3.15-11.93,3.78-18.16,3.35-3.14-.22-6.38-1.05-9.52-.89-3.59.19-6.93,1.63-10.22,2.92A.28.28,0,0,1,108.87,210.58Z" style="fill: rgb(38, 50, 56); transform-origin: 127.882px 208.354px;" id="elxyss1a0dnl" class="animable"></path><path d="M104.78,192.73a49.76,49.76,0,0,1,10.73-9.27,39.34,39.34,0,0,1,12.36-5.64c7.67-1.81,16.17,0,20.92,6.7a17,17,0,0,1,3.18,11.8.22.22,0,0,1-.43,0c.27-7.69-4.14-15-11.6-17.52-8-2.67-16.44.37-23.3,4.59a72.37,72.37,0,0,0-11.82,9.41S104.76,192.76,104.78,192.73Z" style="fill: rgb(38, 50, 56); transform-origin: 128.419px 186.827px;" id="ely3py6r4zb1h" class="animable"></path><path d="M140.35,244.2a11.6,11.6,0,1,1,5.4-17.51h0a11.62,11.62,0,0,1-2.85,16.16A11.17,11.17,0,0,1,140.35,244.2Zm-7.66-20.26a10.05,10.05,0,1,0,11.79,3.64A10.14,10.14,0,0,0,132.69,223.94Z" style="fill: rgb(55, 71, 79); transform-origin: 136.246px 233.348px;" id="elvs55sw8siyl" class="animable"></path><path d="M163.93,231.82c-4.16,1.57-9.53-1.26-12.32-6.63a13.77,13.77,0,0,1-1.55-8.33,7.22,7.22,0,0,1,11-5.7,13.86,13.86,0,0,1,5.91,6.08c2.94,5.68,1.9,12.08-2.33,14.27A7,7,0,0,1,163.93,231.82Zm-8.74-19.77a5.05,5.05,0,0,0-.53.24,6.18,6.18,0,0,0-3.07,4.8,12.28,12.28,0,0,0,1.4,7.38c2.55,4.92,7.44,7.47,10.92,5.66s4.21-7.26,1.66-12.18a12.3,12.3,0,0,0-5.22-5.4A6.4,6.4,0,0,0,155.19,212.05Z" style="fill: rgb(55, 71, 79); transform-origin: 159.293px 221.167px;" id="elewx2q3sukc" class="animable"></path><path d="M146,228.06l-1.44-.59c.89-2.12,3.58-5.76,7.5-4.37l-.52,1.46C148.06,223.31,146.11,227.87,146,228.06Z" style="fill: rgb(55, 71, 79); transform-origin: 148.31px 225.426px;" id="elbnymn3625xk" class="animable"></path><path d="M104.24,253.64h-1.55c0-.72.08-7.12,2.89-9.22,2.64-1.95,19.26-8.92,20.08-9.25l.58,1.43c-5.55,2.25-17.7,7.56-19.73,9.07C104.65,247.05,104.24,251.89,104.24,253.64Z" style="fill: rgb(55, 71, 79); transform-origin: 114.465px 244.405px;" id="elwkfh5cm9oe" class="animable"></path><path d="M116.67,243.51s-12.18-8.65-16.39-3.9,7.84,19.28,14.8,19.37a6.63,6.63,0,0,0,7.16-6.35Z" style="fill: rgb(235, 148, 129); transform-origin: 110.824px 248.593px;" id="eljoiybljj9mk" class="animable"></path><path d="M103.84,243.69c-.1,0-.07.17,0,.17,4.93.21,8.63,3.39,11.7,7-1.85-1.13-3.91-1.38-5.5.91-.08.12.09.25.2.18a4.11,4.11,0,0,1,4.71-.17,19.43,19.43,0,0,1,3.24,2.7c.34.31,1-.14.66-.53l-.07-.09C116.94,248.29,109.93,242.13,103.84,243.69Z" style="fill: rgb(38, 50, 56); transform-origin: 111.36px 249.014px;" id="eljm16lx1ycj" class="animable"></path><path d="M158,280.38l-5.33,23.21-31.47-23.35-6.29,10.07S148.34,330,148.19,328l6-20.23,15.05,11.05L163,286.12Z" style="fill: rgb(235, 235, 235); transform-origin: 142.075px 304.157px;" id="el47d49yhxq1l" class="animable"></path><path d="M167.1,302.48c-1.2-5.36-2.27-10.8-3.73-16.1-.05-.19-.36-.22-.38,0-.26,5.4,4.48,25.89,5.24,30.86a.18.18,0,0,1-.07-.05c-.63-.48-13.85-9.62-13.94-9.43-1.48,3.3-5.92,18-6.18,19.35-5.29-6.3-27.42-31-33.43-36.78a.19.19,0,0,0-.29.24c4.86,6.77,33.58,39.41,33.89,39.26.25.14,5.8-18,6.27-21.37,2.33,2.08,15.87,12.61,15.79,11.8A170.31,170.31,0,0,0,167.1,302.48Z" style="fill: rgb(38, 50, 56); transform-origin: 142.281px 308.028px;" id="elogvxv1997t" class="animable"></path></g><defs>     <filter id="active" height="200%">         <feMorphology in="SourceAlpha" result="DILATED" operator="dilate" radius="2"></feMorphology>                <feFlood flood-color="#32DFEC" flood-opacity="1" result="PINK"></feFlood>        <feComposite in="PINK" in2="DILATED" operator="in" result="OUTLINE"></feComposite>        <feMerge>            <feMergeNode in="OUTLINE"></feMergeNode>            <feMergeNode in="SourceGraphic"></feMergeNode>        </feMerge>    </filter>    <filter id="hover" height="200%">        <feMorphology in="SourceAlpha" result="DILATED" operator="dilate" radius="2"></feMorphology>                <feFlood flood-color="#ff0000" flood-opacity="0.5" result="PINK"></feFlood>        <feComposite in="PINK" in2="DILATED" operator="in" result="OUTLINE"></feComposite>        <feMerge>            <feMergeNode in="OUTLINE"></feMergeNode>            <feMergeNode in="SourceGraphic"></feMergeNode>        </feMerge>            <feColorMatrix type="matrix" values="0   0   0   0   0                0   1   0   0   0                0   0   0   0   0                0   0   0   1   0 "></feColorMatrix>    </filter></defs></svg>