<?xml version="1.0" encoding="UTF-8"?>
<svg version="1.1" xmlns="http://www.w3.org/2000/svg" width="1024" height="1024">
<path d="M0 0 C0.91684067 -0.00282329 1.83368134 -0.00564657 2.77830505 -0.00855541 C4.29902367 -0.00551387 4.29902367 -0.00551387 5.85046387 -0.00241089 C6.92228409 -0.00413205 7.99410431 -0.00585321 9.09840393 -0.00762653 C12.71303772 -0.01200427 16.32762621 -0.00898989 19.94226074 -0.00582886 C22.52254248 -0.00697302 25.10282409 -0.00845069 27.68310547 -0.01023865 C35.44215472 -0.01417375 43.20118288 -0.00766828 50.96022797 -0.00002623 C53.88387174 0.0026438 56.80751576 0.00448488 59.73116016 0.00630468 C82.04117864 0.02037076 104.3510775 0.06473357 126.66101074 0.12698364 C127.43575241 0.12911204 128.21049408 0.13124044 129.00871277 0.13343334 C148.6590267 0.18756218 168.30909573 0.26259244 187.95914698 0.37870789 C189.02647066 0.38501472 189.02647066 0.38501472 190.11535645 0.39144897 C190.8237597 0.3956485 191.53216296 0.39984802 192.26203299 0.4041748 C197.21947279 0.43290843 202.17691161 0.45442801 207.13439941 0.47286987 C213.83424766 0.49799559 220.53382798 0.53885478 227.23353577 0.59004402 C229.67730419 0.6065238 232.12111047 0.61825802 234.56492615 0.62463188 C274.11457849 0.73894742 306.98438425 10.62343356 336.05944824 38.41995239 C345.96706972 48.81043629 361.66101074 67.94117218 361.66101074 83.12698364 C362.32101074 83.45698364 362.98101074 83.78698364 363.66101074 84.12698364 C364.23937988 85.83840942 364.23937988 85.83840942 364.69616699 88.07229614 C364.86551758 88.89407349 365.03486816 89.71585083 365.20935059 90.56253052 C365.37902344 91.45005005 365.54869629 92.33756958 365.72351074 93.25198364 C365.89833984 94.1627063 366.07316895 95.07342896 366.2532959 96.01174927 C371.72302877 125.63469835 366.27516063 155.84061265 349.66101074 181.12698364 C346.82785027 184.95326264 343.80856076 188.55687097 340.66101074 192.12698364 C339.96362793 192.94553833 339.26624512 193.76409302 338.54772949 194.60745239 C333.97146327 199.86974024 329.07110632 204.62120392 323.90490723 209.28787231 C318.57220051 214.12852023 313.52127401 219.23182232 308.51013184 224.40310669 C307.90636719 225.01839233 307.30260254 225.63367798 306.68054199 226.26760864 C306.14533936 226.81964966 305.61013672 227.37169067 305.05871582 227.94046021 C303.66101074 229.12698364 303.66101074 229.12698364 301.66101074 229.12698364 C301.33101074 230.11698364 301.00101074 231.10698364 300.66101074 232.12698364 C299.34069824 233.42385864 299.34069824 233.42385864 297.53601074 234.87698364 C293.16845218 238.56654575 289.17567746 242.56381028 285.16101074 246.62698364 C280.79546675 251.0361884 276.42678721 255.32446623 271.68054199 259.32620239 C268.8914037 261.81322899 266.28650172 264.46914908 263.66101074 267.12698364 C260.47812745 270.34907708 257.3141097 273.51750805 253.84851074 276.43948364 C248.98610619 280.56485003 244.57695826 285.16195441 240.11486816 289.7102356 C237.24453192 292.6195883 234.39264757 295.4069892 231.20007324 297.96292114 C230.36218262 298.67706177 229.52429199 299.39120239 228.66101074 300.12698364 C228.4262469 302.23791819 228.4262469 302.23791819 230.12976074 303.60745239 C230.80007324 304.17077271 231.47038574 304.73409302 232.16101074 305.31448364 C232.88288574 305.93065552 233.60476074 306.54682739 234.34851074 307.18167114 C235.11163574 307.82362427 235.87476074 308.46557739 236.66101074 309.12698364 C238.16545799 310.39254906 239.66570343 311.66313204 241.16101074 312.93948364 C241.83132324 313.50280396 242.50163574 314.06612427 243.19226074 314.64651489 C244.66101074 316.12698364 244.66101074 316.12698364 244.66101074 318.12698364 C245.19210449 318.32936646 245.72319824 318.53174927 246.27038574 318.74026489 C249.70234011 320.73102274 252.17242804 323.47007749 254.91101074 326.31448364 C258.30654473 329.82047476 261.71688674 333.22088714 265.42663574 336.39651489 C271.58318415 341.70849599 277.17893971 347.60212824 282.88366699 353.38870239 C286.71587679 357.25438127 290.52512161 361.08492288 294.66101074 364.62698364 C300.75241338 369.84378651 306.25754476 375.68186104 311.88366699 381.38870239 C316.42606249 385.97076947 321.01302897 390.39221188 325.9095459 394.59329224 C343.40071635 409.90964752 354.83227644 431.58441877 359.66101074 454.12698364 C359.99745605 455.57911255 359.99745605 455.57911255 360.34069824 457.06057739 C366.02167785 485.11527808 358.93481123 515.21560373 343.48474121 538.93264771 C333.41065166 553.57136224 320.60243679 564.69345594 305.66101074 574.12698364 C304.11026855 575.10731567 304.11026855 575.10731567 302.52819824 576.10745239 C299.25183208 578.1181669 296.31484397 579.90903923 292.66101074 581.12698364 C291.64394043 581.48534302 290.62687012 581.84370239 289.57897949 582.21292114 C275.72412641 587.000462 261.89869203 590.11521601 247.20397949 590.43899536 C245.99971313 590.46973082 245.99971313 590.46973082 244.77111816 590.50108719 C242.13034114 590.5663493 239.48947755 590.6246349 236.84851074 590.68167114 C235.92575348 590.70260708 235.00299622 590.72354301 234.05227661 590.74511337 C213.88939406 591.19720646 193.73146731 591.28378388 173.56427002 591.2555542 C170.60514222 591.25191493 167.64601943 591.25034737 164.68688965 591.2492981 C108.34350196 591.22476797 52.00140377 590.66364099 -4.33898926 590.12698364 C-5.50079285 564.78483765 -5.50079285 564.78483765 -5.40148926 552.11135864 C-5.39300897 549.63048333 -5.3846311 547.14960766 -5.37634277 544.66873169 C-5.36705246 542.76672501 -5.36705246 542.76672501 -5.35757446 540.82629395 C-5.32501277 533.9070138 -5.30996017 526.98774111 -5.30383301 520.06838989 C-5.30316267 519.36101496 -5.30249233 518.65364002 -5.30180168 517.92482948 C-5.29501217 505.35475177 -5.4838429 492.79324632 -5.75061035 480.2258606 C-5.93362778 471.60355673 -6.04088715 462.980543 -6.14532471 454.35697937 C-6.2417586 447.30203747 -6.43178706 440.25803026 -6.7037487 433.20769596 C-8.48349104 386.16407338 -8.48349104 386.16407338 0.71954346 375.18431091 C5.01607932 370.62499461 9.98745665 366.79894851 15.66101074 364.12698364 C16.32101074 364.12698364 16.98101074 364.12698364 17.66101074 364.12698364 C17.92913574 363.48760864 18.19726074 362.84823364 18.47351074 362.18948364 C19.66101074 360.12698364 19.66101074 360.12698364 22.66101074 359.12698364 C22.66101074 358.46698364 22.66101074 357.80698364 22.66101074 357.12698364 C24.07702637 355.73440552 24.07702637 355.73440552 26.06726074 354.09573364 C31.03989072 349.86724724 35.58486981 345.27657788 40.16101074 340.62698364 C49.11623318 331.52801767 49.11623318 331.52801767 53.54382324 327.74807739 C56.9124196 324.85794617 60.06580549 321.78594546 63.18444824 318.63088989 C63.66170349 318.14812592 64.13895874 317.66536194 64.63067627 317.16796875 C66.6077949 315.16312886 68.58101107 313.1545341 70.5501709 311.14187622 C72.00729517 309.65473982 73.47042832 308.17373359 74.93444824 306.69338989 C76.22488037 305.3777002 76.22488037 305.3777002 77.54138184 304.03543091 C79.66101074 302.12698364 79.66101074 302.12698364 81.66101074 302.12698364 C80.70679266 300.97772098 79.7474903 299.83267823 78.78601074 298.68948364 C78.25233887 298.05139771 77.71866699 297.41331177 77.16882324 296.75588989 C75.73873504 295.0189336 75.73873504 295.0189336 73.66101074 294.12698364 C73.66101074 293.46698364 73.66101074 292.80698364 73.66101074 292.12698364 C73.00101074 292.12698364 72.34101074 292.12698364 71.66101074 292.12698364 C66.89356888 287.82465806 66.89356888 287.82465806 65.66101074 284.12698364 C64.33080877 283.45409068 62.99677069 282.78877485 61.66101074 282.12698364 C59.94919084 280.5671576 58.29050505 278.94829228 56.66882324 277.29495239 C56.20040009 276.82132767 55.73197693 276.34770294 55.24935913 275.85972595 C53.75671857 274.34934284 52.27093843 272.83244724 50.78601074 271.31448364 C49.30741359 269.80807513 47.82731293 268.30322671 46.34408569 266.80137634 C44.99210415 265.4316928 43.64501724 264.05718293 42.29821777 262.68240356 C40.34974219 260.79435562 38.43971301 259.11310061 36.33239746 257.42507935 C35.45083984 256.66670776 34.56928223 255.90833618 33.66101074 255.12698364 C33.66101074 254.46698364 33.66101074 253.80698364 33.66101074 253.12698364 C33.11138672 252.9040564 32.5617627 252.68112915 31.9954834 252.45144653 C28.95952952 250.72899832 26.72125256 248.4155537 24.30944824 245.93557739 C23.5592894 245.1776162 23.5592894 245.1776162 22.79397583 244.40434265 C21.20314131 242.7957528 19.61917991 241.18061545 18.03601074 239.56448364 C16.44483298 237.94568127 14.85221374 236.32836543 13.25662231 234.71391296 C12.26553977 233.71057937 11.27714266 232.70458456 10.29171753 231.69569397 C7.73242393 229.075269 7.73242393 229.075269 4.66101074 227.12698364 C4.66101074 226.46698364 4.66101074 225.80698364 4.66101074 225.12698364 C4.0773301 224.85556801 3.49364946 224.58415237 2.89228153 224.30451202 C-1.47908653 221.99757107 -4.11637212 219.61420253 -6.33898926 215.12698364 C-7.69283481 208.41690952 -7.22266148 201.38024017 -7.13366699 194.57424927 C-7.1316913 192.46472235 -7.1328031 190.35519062 -7.13676453 188.2456665 C-7.13877037 182.5310228 -7.09765774 176.81741064 -7.04874682 171.10300636 C-7.00494442 165.12663651 -7.00087227 159.15024218 -6.99256897 153.17373657 C-6.97082491 141.86191532 -6.91339845 130.55056847 -6.84312254 119.23895597 C-6.76484119 106.35879241 -6.72638294 93.47860602 -6.6912545 80.59826374 C-6.61811526 54.10757419 -6.49501513 27.61730551 -6.33898926 1.12698364 C-3.99195605 -0.04653296 -2.61594988 0.00124006 0 0 Z M64.66101074 68.12698364 C64.09613088 83.74806233 63.67516775 99.36631494 63.41751862 114.99511719 C63.29460534 122.25532139 63.1270234 129.5090629 62.85046387 136.76516724 C59.75988825 171.34890011 59.75988825 171.34890011 71.3693161 201.99069214 C75.65701891 206.50036908 80.50316271 210.06076311 85.7906189 213.32997131 C91.35688872 216.81474135 96.09349974 221.38935821 100.65319824 226.09182739 C101.29515137 226.74602661 101.93710449 227.40022583 102.59851074 228.07424927 C103.91524945 229.42682663 105.23029434 230.78105455 106.54382324 232.13674927 C107.49515137 233.10451294 107.49515137 233.10451294 108.46569824 234.09182739 C109.31623779 234.96762451 109.31623779 234.96762451 110.18395996 235.8611145 C111.58989816 237.34389687 111.58989816 237.34389687 113.66101074 237.12698364 C113.99101074 238.11698364 114.32101074 239.10698364 114.66101074 240.12698364 C116.21806268 241.70538936 116.21806268 241.70538936 118.16101074 243.25198364 C123.75307428 247.99676482 128.81213427 253.22949154 133.95007324 258.45510864 C139.86340818 264.4294058 145.88724354 270.13263873 152.66101074 275.12698364 C158.0410954 270.58847647 163.06339797 265.79480217 167.97351074 260.75198364 C170.06267567 258.71140395 172.16743023 256.80735286 174.37976074 254.90823364 C179.2144552 250.7175604 183.67518187 246.18481619 188.16101074 241.62698364 C193.23502212 236.47152746 198.33111518 231.45619166 203.82116699 226.74417114 C206.65382565 224.25431831 209.28051857 221.57706555 211.91101074 218.87698364 C217.15355896 213.50001111 217.15355896 213.50001111 220.02038574 211.39260864 C220.83249512 210.76612427 220.83249512 210.76612427 221.66101074 210.12698364 C221.66101074 209.46698364 221.66101074 208.80698364 221.66101074 208.12698364 C222.48278809 207.79827271 222.48278809 207.79827271 223.32116699 207.46292114 C226.40825666 205.7003424 228.66372077 203.29729366 231.09851074 200.75198364 C233.78904971 197.9606894 236.44601077 195.29509062 239.50866699 192.90042114 C240.57407715 192.02256958 240.57407715 192.02256958 241.66101074 191.12698364 C241.66101074 190.46698364 241.66101074 189.80698364 241.66101074 189.12698364 C242.20241699 188.91428833 242.74382324 188.70159302 243.30163574 188.48245239 C246.5134546 186.63725183 248.86893746 184.08910618 251.41101074 181.43948364 C254.62706081 178.10857465 257.87410764 174.90006565 261.38757324 171.88088989 C266.57487294 167.39583079 271.42503047 162.58534471 276.28601074 157.75198364 C277.20124512 156.85737427 278.11647949 155.96276489 279.05944824 155.04104614 C290.03745987 144.12649123 296.95846972 133.3958582 297.16101074 117.56448364 C297.10139865 110.4965288 295.77616585 104.52783156 292.66101074 98.12698364 C292.35679199 97.46698364 292.05257324 96.80698364 291.73913574 96.12698364 C284.85603761 83.35833784 272.36334881 74.31848509 258.66101074 70.12698364 C249.45238643 67.53621338 240.10711 67.85849517 230.63513184 67.89993286 C228.82087205 67.90049776 227.00661181 67.90017888 225.19235229 67.89904785 C220.29223374 67.89847642 215.39221404 67.91019669 210.49211836 67.92419577 C205.36186703 67.93673818 200.23161318 67.93787639 195.10134888 67.94024658 C185.39768512 67.94645106 175.69406669 67.96284786 165.99042284 67.98294556 C154.93841241 68.00533675 143.88639977 68.01630608 132.83437228 68.02633643 C110.10989336 68.04721503 87.38545459 68.08237087 64.66101074 68.12698364 Z M151.66101074 324.12698364 C151.66101074 324.78698364 151.66101074 325.44698364 151.66101074 326.12698364 C151.07980469 326.38149292 150.49859863 326.6360022 149.89978027 326.89822388 C147.42308493 328.2575704 145.80966629 329.76609461 143.84069824 331.78713989 C143.1407373 332.49805786 142.44077637 333.20897583 141.71960449 333.94143677 C140.99901855 334.68329224 140.27843262 335.42514771 139.53601074 336.18948364 C138.09813513 337.66171557 136.65813366 339.1318752 135.21569824 340.59963989 C134.58131836 341.25198608 133.94693848 341.90433228 133.29333496 342.57644653 C131.66101074 344.12698364 131.66101074 344.12698364 129.66101074 345.12698364 C129.66101074 345.78698364 129.66101074 346.44698364 129.66101074 347.12698364 C129.0761792 347.38511841 128.49134766 347.64325317 127.88879395 347.90921021 C125.48066425 349.22556647 123.92669995 350.64795634 122.01647949 352.61135864 C121.33907715 353.29971802 120.6616748 353.98807739 119.96374512 354.69729614 C119.26571777 355.41659302 118.56769043 356.13588989 117.84851074 356.87698364 C113.90269027 360.922839 110.00459561 364.90883454 105.64929199 368.51760864 C104.66315918 369.37870239 103.67702637 370.23979614 102.66101074 371.12698364 C102.66101074 371.78698364 102.66101074 372.44698364 102.66101074 373.12698364 C102.07529297 373.38600464 101.4895752 373.64502563 100.8861084 373.91189575 C98.49616169 375.2170049 96.95382734 376.62037692 95.05944824 378.56838989 C94.40460449 379.23419067 93.74976074 379.89999146 93.07507324 380.58596802 C92.0657373 381.62720825 92.0657373 381.62720825 91.03601074 382.68948364 C89.69189205 384.06796901 88.34563921 385.44437765 86.99694824 386.81838989 C86.40446289 387.42884155 85.81197754 388.03929321 85.20153809 388.66824341 C83.66101074 390.12698364 83.66101074 390.12698364 81.66101074 391.12698364 C81.66101074 391.78698364 81.66101074 392.44698364 81.66101074 393.12698364 C80.17601074 393.62198364 80.17601074 393.62198364 78.66101074 394.12698364 C78.66101074 394.78698364 78.66101074 395.44698364 78.66101074 396.12698364 C78.00101074 396.12698364 77.34101074 396.12698364 76.66101074 396.12698364 C76.66101074 396.78698364 76.66101074 397.44698364 76.66101074 398.12698364 C76.08747581 398.38585169 75.51394087 398.64471973 74.92302608 398.91143227 C70.68704904 401.18774208 67.45753495 404.22351832 64.66101074 408.12698364 C63.58632007 411.76436126 63.63239598 415.17399615 63.73693848 418.9458313 C63.73416397 420.00050095 63.73138947 421.05517059 63.72853088 422.14179993 C63.72900383 425.60954791 63.78625496 429.07382935 63.84460449 432.54104614 C63.8569994 434.95903053 63.86598661 437.37703458 63.87171936 439.79504395 C63.89653964 446.14896672 63.97024072 452.50143818 64.05340576 458.85482788 C64.11342827 464.04088671 64.13990097 469.22685617 64.16438198 474.41318703 C64.21505812 485.13134581 64.28802374 495.8494476 64.42053223 506.56692505 C64.42950531 507.55201553 64.43847839 508.53710602 64.44772339 509.55204773 C64.46065933 510.46587723 64.47359528 511.37970673 64.48692322 512.32122803 C64.49639197 513.1091102 64.50586073 513.89699238 64.51561642 514.70874977 C64.68716851 517.56204607 65.15174876 520.31616938 65.66101074 523.12698364 C88.88828391 523.19720068 112.11553947 523.25003389 135.34289742 523.28242016 C146.12882164 523.29786028 156.91467975 523.31889499 167.70056152 523.353302 C177.10632145 523.383292 186.51203347 523.40257938 195.91783988 523.40924913 C200.8937949 523.41314517 205.86961291 523.42224138 210.84552383 523.44417381 C215.53881419 523.46469093 220.23191243 523.47078698 224.92524338 523.46630669 C226.63835955 523.46712513 228.35148284 523.47299939 230.06455994 523.48460007 C249.0257661 523.60659323 265.44342925 520.76378158 279.66101074 507.12698364 C287.37532672 498.36192463 292.66101074 488.00450886 292.66101074 476.12698364 C291.41250995 459.51427929 284.05828384 448.44388105 272.66101074 437.12698364 C271.46024902 435.88948364 271.46024902 435.88948364 270.23522949 434.62698364 C266.93903432 431.25678063 263.58023985 428.04921895 260.00085449 424.98245239 C254.12333405 419.87474561 248.78161154 414.22431605 243.37585449 408.62698364 C242.5676123 407.80456177 241.75937012 406.98213989 240.92663574 406.13479614 C240.20250488 405.38859009 239.47837402 404.64238403 238.7322998 403.87356567 C236.82050463 401.99345102 236.82050463 401.99345102 234.51940918 401.62649536 C233.9061377 401.46165649 233.29286621 401.29681763 232.66101074 401.12698364 C231.62438965 399.29226685 231.62438965 399.29226685 230.66101074 397.12698364 C229.09181765 395.26902342 229.09181765 395.26902342 227.24694824 393.48245239 C226.5676123 392.80505005 225.88827637 392.12764771 225.18835449 391.42971802 C224.47808105 390.73169067 223.76780762 390.03366333 223.03601074 389.31448364 C222.34894043 388.62805786 221.66187012 387.94163208 220.95397949 387.23440552 C217.63610131 383.94453944 214.2760062 380.75376128 210.73132324 377.70901489 C205.08953236 372.83907639 199.9517731 367.46254155 194.72741699 362.15432739 C190.40451351 357.78938595 186.0159937 353.6014434 181.35339355 349.60110474 C178.77506011 347.3552915 176.45227596 344.89448521 174.10632324 342.41213989 C172.73425335 340.90548725 172.73425335 340.90548725 170.66101074 341.12698364 C170.66101074 340.46698364 170.66101074 339.80698364 170.66101074 339.12698364 C170.00101074 339.12698364 169.34101074 339.12698364 168.66101074 339.12698364 C168.66101074 338.46698364 168.66101074 337.80698364 168.66101074 337.12698364 C167.07662153 335.52428246 167.07662153 335.52428246 165.03601074 333.87698364 C162.32437997 331.58769536 159.78283346 329.27096945 157.34851074 326.68948364 C154.91803575 323.78194598 154.91803575 323.78194598 151.66101074 324.12698364 Z " fill="#5B45F5" transform="translate(314.3389892578125,210.87301635742188)"/>
<path d="M0 0 C0.33 0 0.66 0 1 0 C1 66 1 132 1 200 C85.81 200 170.62 200 258 200 C258 200.33 258 200.66 258 201 C250.36578558 201.97853481 242.77641841 202.32348928 235.0859375 202.5546875 C234.40122753 202.57562344 233.71651756 202.59655937 233.01105881 202.61812973 C214.54024154 203.16934679 196.06728198 203.15383553 177.58990479 203.12857056 C174.58500064 203.12495183 171.58010139 203.12336821 168.57519531 203.12231445 C112.04863155 203.09795302 55.5235595 202.53840205 -1 202 C-1.16668371 198.21495453 -1.32973132 194.42976034 -1.4921875 190.64453125 C-1.53883545 189.58625122 -1.5854834 188.52797119 -1.63354492 187.43762207 C-1.91406279 180.85303375 -2.09471358 174.27804108 -2.125 167.6875 C-2.12967285 166.95213013 -2.1343457 166.21676025 -2.13916016 165.45910645 C-2.12967573 162.36262215 -1.98707178 159.96121535 -1 157 C-0.8965248 154.89485137 -0.85355624 152.78656658 -0.84178162 150.6789093 C-0.83684364 150.03522831 -0.83190566 149.39154731 -0.82681805 148.72836083 C-0.81144016 146.56801465 -0.80308167 144.40769819 -0.79467773 142.24731445 C-0.78509944 140.70009092 -0.77508938 139.15287001 -0.76467896 137.60565186 C-0.73761859 133.40143488 -0.71661515 129.19720666 -0.69667697 124.99295068 C-0.67482441 120.60068219 -0.64743215 116.2084484 -0.62062073 111.81620789 C-0.57068397 103.49711604 -0.52574878 95.17800496 -0.48259836 86.85887545 C-0.43323439 77.38858834 -0.37831315 67.91833603 -0.32291877 58.44808257 C-0.20908363 38.96542068 -0.10224792 19.48272597 0 0 Z " fill="#4E31E7" transform="translate(311,599)"/>
<path d="M0 0 C0.90835444 -0.00187002 1.81670889 -0.00374004 2.75258923 -0.00566673 C5.72837825 -0.00925932 8.70391978 0.00140496 11.6796875 0.01245117 C13.85581956 0.01322806 16.03195203 0.01320836 18.20808411 0.01246643 C24.09575897 0.01341256 29.98332957 0.02766554 35.87097549 0.04528046 C39.56993877 0.0554619 43.26889198 0.06217413 46.96786499 0.06768799 C65.10334186 0.09491694 83.2385517 0.1567819 101.3738699 0.23374462 C103.5783093 0.24301931 105.78274956 0.25205856 107.98719025 0.26102448 C128.26125334 0.34360484 148.53509338 0.44748429 168.8089093 0.57737011 C173.91173435 0.60972454 179.01457225 0.63765641 184.11743164 0.66397095 C191.00703874 0.69975766 197.89649974 0.7465629 204.78598595 0.8007946 C207.33105967 0.81934223 209.87615995 0.8345749 212.42127419 0.84631538 C215.90184013 0.86305234 219.38209569 0.8919594 222.86254883 0.92407227 C224.39070724 0.92731113 224.39070724 0.92731113 225.94973755 0.93061543 C234.42194983 1.03170129 234.42194983 1.03170129 238.5546875 3.24291992 C238.5546875 3.57291992 238.5546875 3.90291992 238.5546875 4.24291992 C150.7746875 3.91291992 62.9946875 3.58291992 -27.4453125 3.24291992 C-27.3215625 37.04729492 -27.1978125 70.85166992 -27.0703125 105.68041992 C-27.03631348 116.35313232 -27.00231445 127.02584473 -26.96728516 138.02197266 C-26.92737517 147.5912609 -26.92737517 147.5912609 -26.88485718 157.16053772 C-26.86599353 161.42180593 -26.85263734 165.68305317 -26.84262085 169.9443512 C-26.82965528 175.38335718 -26.80725365 180.82224817 -26.77807879 186.26119053 C-26.76897904 188.25512288 -26.76316771 190.24907366 -26.76105809 192.24302566 C-26.75772469 194.94217221 -26.74222498 197.64099294 -26.7237854 200.34007263 C-26.72572088 201.11516709 -26.72765636 201.89026155 -26.7296505 202.68884373 C-26.67491464 208.08252234 -25.79320246 213.02494133 -24.4453125 218.24291992 C-27.4453125 216.24291992 -27.4453125 216.24291992 -28.4453125 213.24291992 C-28.53929411 210.44411356 -28.57560379 207.67055577 -28.56556702 204.8717804 C-28.56642144 204.00758757 -28.56727587 203.14339475 -28.56815618 202.25301427 C-28.56980822 199.34638971 -28.56429409 196.43982239 -28.55883789 193.53320312 C-28.55855593 191.45396933 -28.55871392 189.37473544 -28.5592804 187.29550171 C-28.55956804 181.64089234 -28.55367665 175.98630406 -28.54670644 170.33169961 C-28.54046739 164.4259834 -28.53986866 158.52026673 -28.53868103 152.61454773 C-28.53556935 141.42673889 -28.52735814 130.23893979 -28.51733154 119.05113524 C-28.50616537 106.31612184 -28.50065868 93.58110799 -28.49563611 80.84609091 C-28.4851754 54.64502851 -28.46757909 28.44397476 -28.4453125 2.24291992 C-9.23518609 -0.06512547 -9.23518609 -0.06512547 0 0 Z " fill="#5136EA" transform="translate(337.4453125,210.757080078125)"/>
<path d="M0 0 C0.99 0 1.98 0 3 0 C2.67 52.8 2.34 105.6 2 160 C-0.11635316 155.76729368 -0.22555902 154.02512491 -0.16015625 149.40625 C-0.15463745 148.7334198 -0.14911865 148.0605896 -0.14343262 147.36737061 C-0.13096858 145.87691425 -0.11428739 144.3864889 -0.09402466 142.89611816 C-0.03781299 138.62359618 -0.01776995 134.35095701 0 130.078125 C0.00414413 129.13418884 0.00828827 128.19025269 0.01255798 127.2177124 C0.03062675 119.53298952 -0.0885968 111.85474593 -0.25 104.171875 C-0.275177 102.96638 -0.300354 101.76088501 -0.32629395 100.51885986 C-0.37865385 98.02766739 -0.43110461 95.53647682 -0.48364258 93.04528809 C-1.12875375 61.99706611 -0.77157537 31.04319835 0 0 Z " fill="#694FEA" transform="translate(309,596)"/>
<path d="M0 0 C0.33 0 0.66 0 1 0 C2.46903121 13.95579653 2.09469427 27.98816171 2 42 C1.67 42 1.34 42 1 42 C0.93941406 40.92621094 0.87882812 39.85242188 0.81640625 38.74609375 C0.73192349 37.30988685 0.64727946 35.87368942 0.5625 34.4375 C0.52318359 33.73302734 0.48386719 33.02855469 0.44335938 32.30273438 C0.24624556 29.01244988 -0.02740816 25.82113639 -0.52734375 22.55859375 C-1.10330016 18.22226079 -1.14623853 13.99305755 -1.125 9.625 C-1.12886719 8.80644531 -1.13273437 7.98789062 -1.13671875 7.14453125 C-1.126739 1.126739 -1.126739 1.126739 0 0 Z " fill="#5134E8" transform="translate(310,758)"/>
<path d="M0 0 C0.66 0 1.32 0 2 0 C3.04063021 1.86408542 4.05677915 3.74185071 5.0625 5.625 C5.63097656 6.66914062 6.19945312 7.71328125 6.78515625 8.7890625 C8.15337815 12.40539177 7.96959374 14.31000327 7 18 C5.40058159 14.83853277 3.86970801 11.64981107 2.375 8.4375 C1.92898438 7.48746094 1.48296875 6.53742187 1.0234375 5.55859375 C0 3 0 3 0 0 Z " fill="#6349EF" transform="translate(599,660)"/>
<path d="M0 0 C3.85754273 1.57159148 6.14362932 4.01077487 9 7 C10.26818853 8.27347265 11.53910193 9.54423659 12.8125 10.8125 C13.875 11.875 14.9375 12.9375 16 14 C15.01 14.33 14.02 14.66 13 15 C8.08198915 10.30165217 3.77661644 5.66492467 0 0 Z " fill="#5538EF" transform="translate(546,607)"/>
<path d="M0 0 C0 3.90547745 -1.292639 5.08826312 -3.6875 8.125 C-4.37199219 9.01445313 -5.05648438 9.90390625 -5.76171875 10.8203125 C-8.23903592 13.23277844 -9.60886368 13.70305286 -13 14 C-8.88380164 9.08064098 -4.59589638 4.47352044 0 0 Z " fill="#634BEB" transform="translate(323,582)"/>
<path d="M0 0 C0 3 0 3 -1.64453125 4.82421875 C-2.71767578 5.74654297 -2.71767578 5.74654297 -3.8125 6.6875 C-4.52019531 7.31011719 -5.22789062 7.93273437 -5.95703125 8.57421875 C-8 10 -8 10 -11 10 C-10.06409496 8.8944811 -9.12620142 7.79064547 -8.1875 6.6875 C-7.66542969 6.07261719 -7.14335937 5.45773437 -6.60546875 4.82421875 C-2.35974304 0 -2.35974304 0 0 0 Z " fill="#593CED" transform="translate(391,606)"/>
<path d="M0 0 C0.99 0.33 1.98 0.66 3 1 C-0.63 4.3 -4.26 7.6 -8 11 C-8.66 10.67 -9.32 10.34 -10 10 C-6.9630085 6.18206783 -4.11954267 2.71022544 0 0 Z " fill="#5237F1" transform="translate(329,578)"/>
<path d="M0 0 C0.598125 0.309375 1.19625 0.61875 1.8125 0.9375 C4.08956772 2.10209704 4.08956772 2.10209704 7 3 C8.75 5.375 8.75 5.375 10 8 C9.67 8.99 9.34 9.98 9 11 C7.49403892 9.54782324 5.99537896 8.08807139 4.5 6.625 C3.6646875 5.81289063 2.829375 5.00078125 1.96875 4.1640625 C0 2 0 2 0 0 Z " fill="#563AED" transform="translate(321,437)"/>
<path d="M0 0 C3.83690637 1.56318408 6.39154889 3.7953315 9 7 C8.8125 9.8125 8.8125 9.8125 8 12 C7.34 11.67 6.68 11.34 6 11 C5.87625 10.401875 5.7525 9.80375 5.625 9.1875 C4.79979562 6.29928468 3.13091959 5.06432835 1 3 C0.67 2.01 0.34 1.02 0 0 Z " fill="#5439EF" transform="translate(389,503)"/>
<path d="M0 0 C0.33 0 0.66 0 1 0 C0.50569398 4.9430602 -0.36890025 8.74976194 -3 13 C-3.99 13.33 -4.98 13.66 -6 14 C-4.16508812 9.25981099 -2.08058541 4.63586749 0 0 Z " fill="#573CEA" transform="translate(666,728)"/>
<path d="M0 0 C0.66 0.33 1.32 0.66 2 1 C0.92834431 4.21496708 0.11623226 5.08462512 -2.375 7.25 C-2.98085938 7.79140625 -3.58671875 8.3328125 -4.2109375 8.890625 C-4.80132812 9.25671875 -5.39171875 9.6228125 -6 10 C-6.99 9.67 -7.98 9.34 -9 9 C-6.03 6.03 -3.06 3.06 0 0 Z " fill="#553BED" transform="translate(465,533)"/>
<path d="M0 0 C3.21524305 1.40844718 5.32183868 3.10344786 7.75 5.625 C8.67039062 6.57246094 8.67039062 6.57246094 9.609375 7.5390625 C10.29773438 8.26222656 10.29773438 8.26222656 11 9 C10.01 9.33 9.02 9.66 8 10 C3.78323717 7.36452323 1.95029533 4.5164734 0 0 Z " fill="#644DF0" transform="translate(455,476)"/>
<path d="M0 0 C0.66 0.33 1.32 0.66 2 1 C1.01508224 4.64419572 0.34173648 5.78914132 -2.9375 7.8125 C-6 9 -6 9 -9 9 C-6.03 6.03 -3.06 3.06 0 0 Z " fill="#674EF0" transform="translate(512,442)"/>
<path d="M0 0 C4.2742558 1.5830577 6.26531794 4.50568404 9 8 C6.31325398 7.63692621 4.44127696 7.33095772 2.25 5.6875 C0.85255754 3.80095268 0.3962081 2.29800696 0 0 Z " fill="#6249F0" transform="translate(403,426)"/>
<path d="M0 0 C3.26460973 1.80412643 4.88929795 2.83394693 7 6 C6.625 8.1875 6.625 8.1875 6 10 C4.99421411 8.71283353 3.99553202 7.42011342 3 6.125 C2.443125 5.40570312 1.88625 4.68640625 1.3125 3.9453125 C0 2 0 2 0 0 Z " fill="#5A3EEA" transform="translate(653,623)"/>
<path d="M0 0 C3.81936528 1.55603771 6.26044438 3.95604931 9 7 C9 7.66 9 8.32 9 9 C8.01 9 7.02 9 6 9 C6 8.34 6 7.68 6 7 C5.34 7 4.68 7 4 7 C2.50475822 4.7272325 1.21600285 2.4320057 0 0 Z " fill="#5539EE" transform="translate(479,543)"/>
<path d="M0 0 C0.66 0 1.32 0 2 0 C0.4169423 4.2742558 -2.50568404 6.26531794 -6 9 C-5.6875 7.0625 -5.6875 7.0625 -5 5 C-4.01 4.67 -3.02 4.34 -2 4 C-0.79117904 1.99983534 -0.79117904 1.99983534 0 0 Z " fill="#563AEC" transform="translate(438,559)"/>
<path d="M0 0 C2.37948772 0.17625835 3.70225849 0.69719773 5.37890625 2.40234375 C6.62115486 3.90649092 7.81376056 5.45129851 9 7 C2.29787234 5.06382979 2.29787234 5.06382979 0 2 C0 1.34 0 0.68 0 0 Z " fill="#634AEE" transform="translate(575,545)"/>
<path d="M0 0 C-1.29299694 2.88437779 -2.65941363 4.87219421 -5 7 C-5.99 6.67 -6.98 6.34 -8 6 C-7.0479279 4.99403703 -6.08812654 3.99538437 -5.125 3 C-4.59132813 2.443125 -4.05765625 1.88625 -3.5078125 1.3125 C-2 0 -2 0 0 0 Z " fill="#583CEE" transform="translate(610,445)"/>
<path d="M0 0 C3.0916909 2.52956528 3.90931332 5.22454612 5 9 C2 8 2 8 0 5 C-0.125 2.3125 -0.125 2.3125 0 0 Z " fill="#664CEF" transform="translate(666,272)"/>
<path d="M0 0 C4.51617599 -0.07654536 8.59085217 -0.10228696 13 1 C13 1.33 13 1.66 13 2 C8.545 2.495 8.545 2.495 4 3 C4 2.34 4 1.68 4 1 C2.68 0.67 1.36 0.34 0 0 Z " fill="#6D56F2" transform="translate(572,213)"/>
<path d="M0 0 C0.99 0.33 1.98 0.66 3 1 C1.37660195 2.70884005 -0.29319053 4.37446717 -2 6 C-2.66 6 -3.32 6 -4 6 C-2.84826645 3.53199953 -1.95216435 1.95216435 0 0 Z " fill="#5135F2" transform="translate(491,464)"/>
<path d="M0 0 C0.8125 1.6875 0.8125 1.6875 1 4 C-1.4375 6.75 -1.4375 6.75 -4 9 C-4 5.00095031 -2.27413033 3.19799578 0 0 Z " fill="#664DEF" transform="translate(606,349)"/>
<path d="M0 0 C0.33 0 0.66 0 1 0 C0.67 3.63 0.34 7.26 0 11 C-0.33 11 -0.66 11 -1 11 C-1.33 8.03 -1.66 5.06 -2 2 C-1.34 2 -0.68 2 0 2 C0 1.34 0 0.68 0 0 Z " fill="#6A53ED" transform="translate(674,700)"/>
<path d="M0 0 C3.36720387 1.39332574 4.9859524 2.9789286 7 6 C3.75728494 5.4409112 2.06942576 4.5867822 0 2 C0 1.34 0 0.68 0 0 Z " fill="#5538EC" transform="translate(578,638)"/>
<path d="M0 0 C1.98 1.65 3.96 3.3 6 5 C4.68 5.33 3.36 5.66 2 6 C2 5.34 2 4.68 2 4 C1.34 4 0.68 4 0 4 C0 2.68 0 1.36 0 0 Z " fill="#644AEF" transform="translate(613,580)"/>
<path d="M0 0 C3.36720387 1.39332574 4.9859524 2.9789286 7 6 C3.75728494 5.4409112 2.06942576 4.5867822 0 2 C0 1.34 0 0.68 0 0 Z " fill="#5639EB" transform="translate(504,567)"/>
<path d="M0 0 C-1.15173355 2.46800047 -2.04783565 4.04783565 -4 6 C-4.99 5.67 -5.98 5.34 -7 5 C-2.25 0 -2.25 0 0 0 Z " fill="#5538EC" transform="translate(565,488)"/>
<path d="" fill="#6E55EA" transform="translate(0,0)"/>
<path d="M0 0 C2 1 2 1 2 1 Z " fill="#7158F3" transform="translate(600,670)"/>
<path d="" fill="#6F57E2" transform="translate(0,0)"/>
<path d="M0 0 C2 1 2 1 2 1 Z " fill="#6F55F1" transform="translate(562,628)"/>
<path d="M0 0 C2 1 2 1 2 1 Z " fill="#6E54F0" transform="translate(540,606)"/>
<path d="" fill="#6C54F2" transform="translate(0,0)"/>
<path d="" fill="#6D54F0" transform="translate(0,0)"/>
<path d="" fill="#6C54E6" transform="translate(0,0)"/>
<path d="" fill="#6E56F2" transform="translate(0,0)"/>
<path d="M0 0 C2 1 2 1 2 1 Z " fill="#7057E5" transform="translate(312,433)"/>
<path d="" fill="#7154F5" transform="translate(0,0)"/>
<path d="" fill="#7056E6" transform="translate(0,0)"/>
<path d="" fill="#6F54E8" transform="translate(0,0)"/>
<path d="" fill="#7355E7" transform="translate(0,0)"/>
<path d="" fill="#7156E6" transform="translate(0,0)"/>
<path d="" fill="#7055E9" transform="translate(0,0)"/>
<path d="" fill="#7156E4" transform="translate(0,0)"/>
<path d="" fill="#6A53E6" transform="translate(0,0)"/>
<path d="" fill="#6952D2" transform="translate(0,0)"/>
<path d="" fill="#6B57D0" transform="translate(0,0)"/>
<path d="" fill="#6D56E7" transform="translate(0,0)"/>
<path d="" fill="#6F56E3" transform="translate(0,0)"/>
<path d="" fill="#6C55E5" transform="translate(0,0)"/>
<path d="" fill="#6F58E3" transform="translate(0,0)"/>
<path d="" fill="#6F55E5" transform="translate(0,0)"/>
<path d="" fill="#59565E" transform="translate(0,0)"/>
<path d="" fill="#6E58E3" transform="translate(0,0)"/>
<path d="" fill="#6E58E3" transform="translate(0,0)"/>
<path d="" fill="#7056EF" transform="translate(0,0)"/>
<path d="" fill="#6E53F3" transform="translate(0,0)"/>
<path d="" fill="#7055EF" transform="translate(0,0)"/>
<path d="" fill="#6F53F3" transform="translate(0,0)"/>
<path d="" fill="#7054F3" transform="translate(0,0)"/>
<path d="" fill="#7055F1" transform="translate(0,0)"/>
<path d="" fill="#7254F3" transform="translate(0,0)"/>
<path d="" fill="#7156EE" transform="translate(0,0)"/>
<path d="" fill="#6E57E1" transform="translate(0,0)"/>
<path d="" fill="#6C57E2" transform="translate(0,0)"/>
<path d="" fill="#6C58E2" transform="translate(0,0)"/>
<path d="" fill="#7258EE" transform="translate(0,0)"/>
<path d="" fill="#745AF1" transform="translate(0,0)"/>
<path d="" fill="#6E57E1" transform="translate(0,0)"/>
<path d="" fill="#6F57E7" transform="translate(0,0)"/>
<path d="" fill="#7157F1" transform="translate(0,0)"/>
<path d="" fill="#6F54F0" transform="translate(0,0)"/>
<path d="" fill="#7054F2" transform="translate(0,0)"/>
<path d="" fill="#7158F4" transform="translate(0,0)"/>
<path d="" fill="#6E55EA" transform="translate(0,0)"/>
<path d="" fill="#7255F4" transform="translate(0,0)"/>
<path d="" fill="#6D53E7" transform="translate(0,0)"/>
<path d="" fill="#6E52E8" transform="translate(0,0)"/>
<path d="" fill="#6B52EA" transform="translate(0,0)"/>
<path d="" fill="#6F54EA" transform="translate(0,0)"/>
<path d="" fill="#7257F2" transform="translate(0,0)"/>
<path d="" fill="#7056F2" transform="translate(0,0)"/>
<path d="" fill="#6D55F2" transform="translate(0,0)"/>
<path d="" fill="#6E56F0" transform="translate(0,0)"/>
<path d="" fill="#6E55DE" transform="translate(0,0)"/>
<path d="" fill="#6E56F5" transform="translate(0,0)"/>
<path d="" fill="#7057F3" transform="translate(0,0)"/>
<path d="" fill="#6F53E5" transform="translate(0,0)"/>
<path d="" fill="#6F55EA" transform="translate(0,0)"/>
<path d="" fill="#7054F2" transform="translate(0,0)"/>
<path d="" fill="#6D56E7" transform="translate(0,0)"/>
<path d="" fill="#6C52E5" transform="translate(0,0)"/>
<path d="" fill="#6D55F2" transform="translate(0,0)"/>
<path d="" fill="#6E51F0" transform="translate(0,0)"/>
<path d="" fill="#6F55E9" transform="translate(0,0)"/>
<path d="" fill="#7055F2" transform="translate(0,0)"/>
<path d="" fill="#6E57F1" transform="translate(0,0)"/>
<path d="" fill="#6F55E9" transform="translate(0,0)"/>
<path d="" fill="#7056F0" transform="translate(0,0)"/>
<path d="" fill="#6D54E4" transform="translate(0,0)"/>
<path d="" fill="#6F56E5" transform="translate(0,0)"/>
<path d="" fill="#6D56EE" transform="translate(0,0)"/>
<path d="" fill="#7053F4" transform="translate(0,0)"/>
<path d="" fill="#6E51F2" transform="translate(0,0)"/>
<path d="" fill="#7157F2" transform="translate(0,0)"/>
<path d="" fill="#6F57E7" transform="translate(0,0)"/>
<path d="" fill="#6D4EEF" transform="translate(0,0)"/>
<path d="" fill="#6F53F1" transform="translate(0,0)"/>
<path d="" fill="#6D55E4" transform="translate(0,0)"/>
<path d="" fill="#6E54E3" transform="translate(0,0)"/>
<path d="" fill="#6F57ED" transform="translate(0,0)"/>
<path d="" fill="#7053F1" transform="translate(0,0)"/>
<path d="" fill="#6F55F0" transform="translate(0,0)"/>
<path d="" fill="#6F54F1" transform="translate(0,0)"/>
<path d="" fill="#6D57F1" transform="translate(0,0)"/>
<path d="" fill="#7155F3" transform="translate(0,0)"/>
<path d="" fill="#6F54E7" transform="translate(0,0)"/>
<path d="" fill="#6B53E3" transform="translate(0,0)"/>
<path d="" fill="#6D55E6" transform="translate(0,0)"/>
<path d="" fill="#6E56E5" transform="translate(0,0)"/>
<path d="" fill="#7156F3" transform="translate(0,0)"/>
<path d="" fill="#6F54F3" transform="translate(0,0)"/>
<path d="" fill="#6F57E4" transform="translate(0,0)"/>
<path d="" fill="#6E55EE" transform="translate(0,0)"/>
<path d="" fill="#7057F3" transform="translate(0,0)"/>
<path d="" fill="#6D56E5" transform="translate(0,0)"/>
<path d="" fill="#6E54E3" transform="translate(0,0)"/>
<path d="" fill="#7157F2" transform="translate(0,0)"/>
<path d="" fill="#7156EF" transform="translate(0,0)"/>
<path d="" fill="#7056EA" transform="translate(0,0)"/>
<path d="" fill="#6F57E7" transform="translate(0,0)"/>
<path d="" fill="#6D56ED" transform="translate(0,0)"/>
<path d="" fill="#6E53F0" transform="translate(0,0)"/>
<path d="" fill="#7255F0" transform="translate(0,0)"/>
<path d="" fill="#6E54EE" transform="translate(0,0)"/>
<path d="" fill="#7155E8" transform="translate(0,0)"/>
<path d="" fill="#6F55F2" transform="translate(0,0)"/>
<path d="" fill="#6C55EB" transform="translate(0,0)"/>
<path d="" fill="#6E54EC" transform="translate(0,0)"/>
<path d="" fill="#6F58EA" transform="translate(0,0)"/>
<path d="" fill="#6C56EF" transform="translate(0,0)"/>
<path d="" fill="#6F57F4" transform="translate(0,0)"/>
<path d="" fill="#6E53F1" transform="translate(0,0)"/>
<path d="" fill="#6F55ED" transform="translate(0,0)"/>
<path d="" fill="#6C57EA" transform="translate(0,0)"/>
<path d="" fill="#6F57EE" transform="translate(0,0)"/>
<path d="" fill="#6D53EB" transform="translate(0,0)"/>
<path d="" fill="#6F58EE" transform="translate(0,0)"/>
<path d="" fill="#7058F1" transform="translate(0,0)"/>
<path d="" fill="#7155F0" transform="translate(0,0)"/>
<path d="" fill="#7253F2" transform="translate(0,0)"/>
<path d="" fill="#6F57ED" transform="translate(0,0)"/>
<path d="" fill="#6E58EE" transform="translate(0,0)"/>
<path d="" fill="#715AEB" transform="translate(0,0)"/>
<path d="" fill="#7257EE" transform="translate(0,0)"/>
<path d="" fill="#6E55EF" transform="translate(0,0)"/>
<path d="" fill="#7057F0" transform="translate(0,0)"/>
<path d="" fill="#6B56ED" transform="translate(0,0)"/>
<path d="" fill="#6F56EA" transform="translate(0,0)"/>
<path d="" fill="#6E52EB" transform="translate(0,0)"/>
<path d="" fill="#6F54EF" transform="translate(0,0)"/>
<path d="" fill="#6D55EF" transform="translate(0,0)"/>
<path d="" fill="#6E57F1" transform="translate(0,0)"/>
<path d="" fill="#7056F1" transform="translate(0,0)"/>
<path d="" fill="#7157EC" transform="translate(0,0)"/>
<path d="" fill="#7053F0" transform="translate(0,0)"/>
<path d="" fill="#6E57F0" transform="translate(0,0)"/>
<path d="" fill="#7156F0" transform="translate(0,0)"/>
<path d="" fill="#6A55ED" transform="translate(0,0)"/>
<path d="" fill="#6F54F0" transform="translate(0,0)"/>
<path d="" fill="#6F54E9" transform="translate(0,0)"/>
<path d="" fill="#6B54EF" transform="translate(0,0)"/>
<path d="" fill="#6F57F1" transform="translate(0,0)"/>
<path d="" fill="#6D52EE" transform="translate(0,0)"/>
<path d="" fill="#6E58E5" transform="translate(0,0)"/>
<path d="" fill="#6E55F1" transform="translate(0,0)"/>
<path d="" fill="#6F57E5" transform="translate(0,0)"/>
<path d="" fill="#6F55F1" transform="translate(0,0)"/>
<path d="" fill="#7055E1" transform="translate(0,0)"/>
<path d="" fill="#6C4FEF" transform="translate(0,0)"/>
<path d="" fill="#7155E3" transform="translate(0,0)"/>
<path d="" fill="#6D4EF3" transform="translate(0,0)"/>
<path d="" fill="#6F57ED" transform="translate(0,0)"/>
<path d="" fill="#7057E1" transform="translate(0,0)"/>
<path d="" fill="#7258EF" transform="translate(0,0)"/>
<path d="" fill="#7058F2" transform="translate(0,0)"/>
<path d="" fill="#6C51F0" transform="translate(0,0)"/>
<path d="" fill="#6C51E7" transform="translate(0,0)"/>
<path d="" fill="#6D57E5" transform="translate(0,0)"/>
<path d="" fill="#6C51F2" transform="translate(0,0)"/>
<path d="" fill="#6D52F1" transform="translate(0,0)"/>
<path d="" fill="#7358F2" transform="translate(0,0)"/>
<path d="" fill="#6C51F3" transform="translate(0,0)"/>
<path d="" fill="#6D54E5" transform="translate(0,0)"/>
<path d="" fill="#6D52F3" transform="translate(0,0)"/>
<path d="" fill="#58565E" transform="translate(0,0)"/>
<path d="" fill="#6F5AF1" transform="translate(0,0)"/>
<path d="" fill="#6B4EF2" transform="translate(0,0)"/>
<path d="" fill="#6C51F3" transform="translate(0,0)"/>
<path d="" fill="#6A50E7" transform="translate(0,0)"/>
<path d="" fill="#6D5AF2" transform="translate(0,0)"/>
<path d="" fill="#6F55E3" transform="translate(0,0)"/>
<path d="" fill="#6D56E4" transform="translate(0,0)"/>
<path d="" fill="#6E54F1" transform="translate(0,0)"/>
<path d="" fill="#6F54F2" transform="translate(0,0)"/>
<path d="" fill="#7359F3" transform="translate(0,0)"/>
<path d="" fill="#6E54F0" transform="translate(0,0)"/>
<path d="" fill="#6E57E6" transform="translate(0,0)"/>
<path d="" fill="#6C54E5" transform="translate(0,0)"/>
<path d="" fill="#7358E6" transform="translate(0,0)"/>
<path d="" fill="#6E53E5" transform="translate(0,0)"/>
<path d="" fill="#6B51E2" transform="translate(0,0)"/>
<path d="" fill="#6C56E2" transform="translate(0,0)"/>
<path d="" fill="#6E55E4" transform="translate(0,0)"/>
<path d="" fill="#5A5864" transform="translate(0,0)"/>
<path d="" fill="#6E55DE" transform="translate(0,0)"/>
<path d="" fill="#7157E6" transform="translate(0,0)"/>
<path d="" fill="#6D52DF" transform="translate(0,0)"/>
<path d="" fill="#6A54E2" transform="translate(0,0)"/>
<path d="" fill="#6D54E9" transform="translate(0,0)"/>
<path d="" fill="#6C55E8" transform="translate(0,0)"/>
<path d="" fill="#6E55EB" transform="translate(0,0)"/>
<path d="" fill="#6B55EB" transform="translate(0,0)"/>
<path d="" fill="#6D56D4" transform="translate(0,0)"/>
<path d="" fill="#565554" transform="translate(0,0)"/>
</svg>
